<svg id="レイヤー_1" data-name="レイヤー 1" xmlns="http://www.w3.org/2000/svg" xmlns:xlink="http://www.w3.org/1999/xlink" viewBox="0 0 246.84 210.42"><defs><style>.cls-1,.cls-7{fill:none;}.cls-2{fill:#c99d56;}.cls-3{fill:#fcc062;}.cls-4{fill:#fbb03b;}.cls-5{fill:#fdd089;}.cls-6{fill:#bc842c;}.cls-7{stroke:#bc842c;stroke-linecap:round;stroke-miterlimit:10;stroke-width:4px;}.cls-8{clip-path:url(#clip-path);}</style><clipPath id="clip-path" transform="translate(-224.57 -159.67)"><path class="cls-1" d="M345.8,208.2a19.6,19.6,0,0,0-7-2V206c-29.92-10.71-42.31-4-42.31-4C275,209.7,262.8,220.58,262.8,239.71V345.53h76v-44.8l40,25.8c-8.73-17-8.55-41.15,5.25-59.82,12.33-16.68,36.8-25.53,54-24.84Z"/></clipPath></defs><title>kirin-face</title><path class="cls-2" d="M264.93,345.31H284.2l-0.06,0,5.39-3.14,1.13,2.62-0.5-3L296.6,338l-5.31-7.26-0.73-.47,2.67-2.43,7-2.74-17.45-7.19,20.9-7.18-7.45-7.18,9.85-7.18-4.19-7.18-3.31-2.7H272.89l-9.65,2.79,10.42,7.17-3.86,7.17,2.53-.65-4,5.22,0.13,7.21L256.81,318l19.48,7.17-17.37,5.75,0,0,3.16,1.4-8.49,1.43,6.87,6.5-9.59,5.07,7.85,0.22m-1.79,0h6.43l-0.3-.22" transform="translate(-224.57 -159.67)"/><path class="cls-3" d="M323.67,229.08c4.25,12.41,13.49,20.48,31.37,14.37s28.27-23,24-35.44-18.29-6.16-36.17,0S319.42,216.67,323.67,229.08Z" transform="translate(-224.57 -159.67)"/><path class="cls-4" d="M462.1,313.83h0c15-29.37,13.78-56.66-18.14-69.64l-5.91-2.32c-17.2-.69-41.67,8.16-54,24.84-13.8,18.68-14,42.84-5.25,59.82L391.46,335C420.65,353.3,449,339.35,462.1,313.83Z" transform="translate(-224.57 -159.67)"/><path class="cls-5" d="M345.8,208.2a19.6,19.6,0,0,0-7-2V206c-29.92-10.71-42.31-4-42.31-4C275,209.7,262.8,220.58,262.8,239.71V345.53h76v-44.8l40,25.8c-8.73-17-8.55-41.15,5.25-59.82,12.33-16.68,36.8-25.53,54-24.84Z" transform="translate(-224.57 -159.67)"/><circle cx="85.44" cy="68.03" r="4.75"/><circle cx="112.19" cy="63.28" r="4.75"/><path class="cls-5" d="M280.16,178h21.5a0,0,0,0,1,0,0v31.75a10.75,10.75,0,0,1-10.75,10.75h0a10.75,10.75,0,0,1-10.75-10.75V178A0,0,0,0,1,280.16,178Z" transform="translate(-267.88 -72.77) rotate(-15.83)"/><circle class="cls-6" cx="286.12" cy="178.8" r="13.5" transform="translate(-262.49 -74.85) rotate(-15.83)"/><path class="cls-5" d="M313.57,173.08h21.5a0,0,0,0,1,0,0v31.75a10.75,10.75,0,0,1-10.75,10.75h0a10.75,10.75,0,0,1-10.75-10.75V173.08A0,0,0,0,1,313.57,173.08Z" transform="translate(-241.02 -129.12) rotate(-5.26)"/><circle class="cls-6" cx="322.37" cy="173.17" r="13.5" transform="translate(-239.09 -129.39) rotate(-5.26)"/><ellipse class="cls-6" cx="423.37" cy="278.07" rx="2.93" ry="4.38" transform="translate(-277.04 -55.21) rotate(-13.25)"/><ellipse class="cls-6" cx="443.49" cy="273.33" rx="2.93" ry="4.38" transform="translate(-275.42 -50.73) rotate(-13.25)"/><path class="cls-7" d="M459.41,318.63c-8.08,10.6-45.59,21.07-70.09,1.57" transform="translate(-224.57 -159.67)"/><g class="cls-8"><path class="cls-6" d="M262.39,320.58v49.5s21.71-13.5,21.21-20.5,1-15.87-6.5-22.93S262.39,320.58,262.39,320.58Z" transform="translate(-224.57 -159.67)"/><path class="cls-6" d="M322.17,324.88c0,4.87-.53,11.51-3.72,14.7s-9.84,3.07-14.7,3.07-8.41-3-11.6-6.18-7.41-6.73-7.41-11.6,4-8.68,7.15-11.87,7-8.44,11.87-8.44,11.28,2.65,14.47,5.84S322.17,320,322.17,324.88Z" transform="translate(-224.57 -159.67)"/><path class="cls-6" d="M287.42,292.58c0,4.26-1.75,9.4-4.55,12.19s-7.93,5.41-12.19,5.41-8.27-3.74-11.07-6.54-5.95-6.8-5.95-11.07,3-8.45,5.76-11.25,7-2.57,11.25-2.57,6.63,1.6,9.42,4.4S287.42,288.32,287.42,292.58Z" transform="translate(-224.57 -159.67)"/><path class="cls-6" d="M345.38,305.15c-2.78,2.78-6.34,2.1-10.57,2.1s-6.36-.76-9.14-3.54-7.85-4.9-7.85-9.14-1.26-3.71,1.51-6.48" transform="translate(-224.57 -159.67)"/><path class="cls-6" d="M280.94,231.2c0,5.11-3.79,8.37-8.89,8.37s-8.71-3.26-8.71-8.37,3.6-9.85,8.71-9.85S280.94,226.09,280.94,231.2Z" transform="translate(-224.57 -159.67)"/><path class="cls-6" d="M301.68,278.07c0,3.62-1.95,6.39-5.56,6.39s-7.62-2.77-7.62-6.39,4-5.5,7.62-5.5S301.68,274.45,301.68,278.07Z" transform="translate(-224.57 -159.67)"/></g><path class="cls-3" d="M289.07,242.74c0,13.12-6.68,23.75-27.25,23.75s-37.25-12.63-37.25-25.75S241.25,229,261.82,229,289.07,229.62,289.07,242.74Z" transform="translate(-224.57 -159.67)"/></svg>