<svg id="レイヤー_1" data-name="レイヤー 1" xmlns="http://www.w3.org/2000/svg" viewBox="0 0 400.35 10.06"><defs><style>.cls-1{fill:#fefefe;}.cls-2{fill:none;stroke:#a67c52;stroke-miterlimit:10;stroke-width:3px;}</style></defs><title>article-hr</title><path class="cls-1" d="M510.05,950c11.77,0,11.77-3,23.55-3s11.77,3.81,23.55,3.81,11.77,1.74,23.55,1.74,11.77-3.29,23.55-3.29,11.77,2.82,23.55,2.82,11.77-4.45,23.55-4.45,11.77-.2,23.55-0.2,11.77,1.72,23.55,1.72,11.77-.72,23.55-0.72,11.77-.52,23.55-0.52,11.77,2.82,23.55,2.82,11.78-2,23.55-2,11.78,1.59,23.55,1.59,11.78,3,23.55,3,11.78,0.71,23.55.71,11.78-1.49,23.56-1.49S898.62,951,910.4,951" transform="translate(-510.05 -945.5)"/><path class="cls-2" d="M510.05,950c11.77,0,11.77-3,23.55-3s11.77,3.81,23.55,3.81,11.77,1.74,23.55,1.74,11.77-3.29,23.55-3.29,11.77,2.82,23.55,2.82,11.77-4.45,23.55-4.45,11.77-.2,23.55-0.2,11.77,1.72,23.55,1.72,11.77-.72,23.55-0.72,11.77-.52,23.55-0.52,11.77,2.82,23.55,2.82,11.78-2,23.55-2,11.78,1.59,23.55,1.59,11.78,3,23.55,3,11.78,0.71,23.55.71,11.78-1.49,23.56-1.49S898.62,951,910.4,951" transform="translate(-510.05 -945.5)"/></svg>