<svg id="レイヤー_1" data-name="レイヤー 1" xmlns="http://www.w3.org/2000/svg" xmlns:xlink="http://www.w3.org/1999/xlink" viewBox="0 0 144.24 140.46"><defs><style>.cls-1,.cls-11,.cls-9{fill:none;}.cls-2{fill:#a9ddf3;}.cls-2,.cls-9{stroke:#8c6239;}.cls-11,.cls-2,.cls-9{stroke-miterlimit:10;stroke-width:4px;}.cls-3{clip-path:url(#clip-path);}.cls-4{fill:#c99d56;}.cls-5{fill:#fcc062;}.cls-6{fill:#fdd089;}.cls-7{fill:#bc842c;}.cls-8{clip-path:url(#clip-path-2);}.cls-10{fill:#fbb03b;}.cls-11{stroke:#bc842c;stroke-linecap:round;}</style><clipPath id="clip-path" transform="translate(-1249.5 -1788.02)"><circle class="cls-1" cx="1314.61" cy="1853.13" r="63.11"/></clipPath><clipPath id="clip-path-2" transform="translate(-1249.5 -1788.02)"><path class="cls-1" d="M1321.7,1835.65a11.24,11.24,0,0,0-4-1.15v-0.09c-17.16-6.14-24.26-2.27-24.26-2.27-12.3,4.38-19.3,10.62-19.3,21.59v60.68h43.56v-25.69l23,14.8a33.26,33.26,0,0,1,3-34.31c7.07-9.57,21.1-14.64,31-14.24Z"/></clipPath></defs><title>face-icon</title><circle class="cls-2" cx="65.11" cy="65.11" r="63.11"/><g class="cls-3"><path class="cls-4" d="M1275.32,1914.27h11l0,0,3.09-1.8,0.65,1.5-0.29-1.71,3.7-2.16-3-4.17-0.42-.27,1.53-1.39,4-1.57-10-4.12,12-4.12-4.27-4.12,5.65-4.12-2.41-4.12-1.9-1.55h-14.75l-5.53,1.6,6,4.11-2.21,4.11,1.45-.37-2.31,3,0.07,4.13-6.66,1.47,11.17,4.11-10,3.3h0l1.81,0.81-4.87.82,3.94,3.73-5.4,3h4.4m-1,0h3.69l-0.17-.13" transform="translate(-1249.5 -1788.02)"/><path class="cls-5" d="M1309,1847.62c2.44,7.12,7.74,11.75,18,8.24s16.21-13.21,13.78-20.32-10.49-3.53-20.74,0S1306.57,1840.5,1309,1847.62Z" transform="translate(-1249.5 -1788.02)"/><path class="cls-6" d="M1321.7,1835.65a11.24,11.24,0,0,0-4-1.15v-0.09c-17.16-6.14-24.26-2.27-24.26-2.27-12.3,4.38-19.3,10.62-19.3,21.59v60.68h43.56v-25.69l23,14.8a33.26,33.26,0,0,1,3-34.31c7.07-9.57,21.1-14.64,31-14.24Z" transform="translate(-1249.5 -1788.02)"/><circle cx="49.94" cy="60.04" r="3.34"/><circle cx="68.75" cy="56.7" r="3.34"/><path class="cls-6" d="M1284.06,1818.32h12.33a0,0,0,0,1,0,0v18.21a6.16,6.16,0,0,1-6.16,6.16h0a6.16,6.16,0,0,1-6.16-6.16v-18.21A0,0,0,0,1,1284.06,1818.32Z" transform="translate(-1699.83 -1366.73) rotate(-15.83)"/><circle class="cls-7" cx="1287.47" cy="1818.78" r="7.74" transform="translate(-1696.74 -1367.92) rotate(-15.83)"/><path class="cls-6" d="M1303.22,1815.5h12.33a0,0,0,0,1,0,0v18.21a6.16,6.16,0,0,1-6.16,6.16h0a6.16,6.16,0,0,1-6.16-6.16V1815.5A0,0,0,0,1,1303.22,1815.5Z" transform="translate(-1411.51 -1660.31) rotate(-5.26)"/><circle class="cls-7" cx="1308.26" cy="1815.55" r="7.74" transform="translate(-1410.4 -1660.46) rotate(-5.26)"/><g class="cls-8"><path class="cls-7" d="M1274.1,1900.09v28.39s12.45-7.74,12.16-11.76,0.57-9.1-3.73-13.15S1274.1,1900.09,1274.1,1900.09Z" transform="translate(-1249.5 -1788.02)"/><path class="cls-7" d="M1306.45,1899.69c0,5.58-3.29,10.08-8.87,10.08s-8.84-4.5-8.84-10.08,3.26-11.66,8.84-11.66S1306.45,1894.11,1306.45,1899.69Z" transform="translate(-1249.5 -1788.02)"/><path class="cls-7" d="M1285.93,1884c0,4.89-2.42,7.59-7.31,7.59s-10.26-2.7-10.26-7.59,5.37-7.41,10.26-7.41S1285.93,1879.14,1285.93,1884Z" transform="translate(-1249.5 -1788.02)"/><path class="cls-7" d="M1321.46,1891.25c-1.59,1.59-3.63,1.21-6.06,1.21a6.22,6.22,0,0,1-5.24-2c-1.59-1.59-4.5-2.81-4.5-5.24s-0.72-2.13.87-3.72" transform="translate(-1249.5 -1788.02)"/><path class="cls-7" d="M1285.1,1848.83a6.18,6.18,0,0,1-5.7,5.89c-2.93,0-4.8-3-4.8-5.89s1.87-5.35,4.8-5.35A5.69,5.69,0,0,1,1285.1,1848.83Z" transform="translate(-1249.5 -1788.02)"/><path class="cls-7" d="M1297,1875.71a3.65,3.65,0,0,1-3.79,3.59,3.57,3.57,0,0,1-3.7-3.59,3.74,3.74,0,0,1,3.7-3.79A3.82,3.82,0,0,1,1297,1875.71Z" transform="translate(-1249.5 -1788.02)"/></g><path class="cls-5" d="M1289.17,1855.45c0,7.52-3.83,13.62-15.63,13.62s-21.36-7.24-21.36-14.77,9.56-6.74,21.36-6.74S1289.17,1847.93,1289.17,1855.45Z" transform="translate(-1249.5 -1788.02)"/></g><circle class="cls-9" cx="65.11" cy="65.11" r="63.11"/><path class="cls-10" d="M1388.4,1896.22h0c8.63-16.84,7.9-32.49-10.41-39.94l-3.39-1.33c-9.86-.4-23.9,4.68-31,14.24a33.26,33.26,0,0,0-3,34.31l7.26,4.84C1364.63,1918.85,1380.9,1910.85,1388.4,1896.22Z" transform="translate(-1249.5 -1788.02)"/><ellipse class="cls-7" cx="1366.18" cy="1875.71" rx="1.68" ry="2.51" transform="translate(-1643.09 -1424.9) rotate(-13.25)"/><ellipse class="cls-7" cx="1377.73" cy="1872.99" rx="1.68" ry="2.51" transform="translate(-1642.16 -1422.33) rotate(-13.25)"/><path class="cls-11" d="M1386.85,1899c-4.63,6.08-26.15,12.09-40.2.9" transform="translate(-1249.5 -1788.02)"/></svg>