<svg id="レイヤー_1" data-name="レイヤー 1" xmlns="http://www.w3.org/2000/svg" xmlns:xlink="http://www.w3.org/1999/xlink" viewBox="0 0 845.24 903.72"><defs><style>.cls-1,.cls-12,.cls-3{fill:none;}.cls-2{fill:#fefefe;}.cls-3{stroke:#a67c52;stroke-width:3px;}.cls-12,.cls-3{stroke-miterlimit:10;}.cls-4{fill:#c99d56;}.cls-5{fill:#fdd089;}.cls-6{fill:#fbc23b;}.cls-7{fill:#bc842c;}.cls-8{clip-path:url(#clip-path);}.cls-9{clip-path:url(#clip-path-2);}.cls-10{fill:#fcc062;}.cls-11{fill:#fbb03b;}.cls-12{stroke:#bc842c;stroke-linecap:round;stroke-width:4px;}.cls-13{clip-path:url(#clip-path-3);}.cls-14{fill:#f2e6d5;}.cls-15{fill:#be9c67;}.cls-16{clip-path:url(#clip-path-4);}</style><clipPath id="clip-path" transform="translate(-3.07 -184.41)"><rect class="cls-1" x="252.99" y="675.7" width="75.96" height="144.45"/></clipPath><clipPath id="clip-path-2" transform="translate(-3.07 -184.41)"><rect class="cls-1" x="253" y="370.28" width="75.96" height="305.74"/></clipPath><clipPath id="clip-path-3" transform="translate(-3.07 -184.41)"><path class="cls-1" d="M336,232.95a19.6,19.6,0,0,0-7-2v-0.16c-29.92-10.71-42.31-4-42.31-4C265.22,234.44,253,245.32,253,264.46V370.28h76v-44.8l40,25.8c-8.73-17-8.55-41.15,5.25-59.82,12.33-16.68,36.8-25.53,54-24.84Z"/></clipPath><clipPath id="clip-path-4" transform="translate(-3.07 -184.41)"><path class="cls-1" d="M124.86,776.46C39.25,788,24.32,820.83,24,875.35h0v0.08c0,0.18,0,.35,0,0.53s0,0.18,0,.28,0,0.12,0,.18c0,0.31,0,.62,0,0.93h0a49.72,49.72,0,0,0,1.17,10L35,985.77l-11,94.36H58l10-94.39,5.33-58.87c27.24,6.88,63.55,7,103.17,2.26,49.79-6,86-17.73,110.59-33.69l7.91,87.3v100.39h34V753.49Z"/></clipPath></defs><title>kirin</title><path class="cls-2" d="M838.75,346c-8.47-8.48-9.33-5.35-21.32-5.35s-12,4.31-24,4.31-12-5.18-24-5.18-12,6.61-24,6.61-12-2.66-24-2.66-12-4.91-24-4.91-12,1.18-24,1.18-12-.51-24-0.51-12-1.11-24-1.11-12,3.78-24,3.78-12,5.84-24,5.84-12-2.19-24-2.19-12-5.17-24-5.17-12-1.68-24-1.68-12,2.5-24,2.5-12,2-24,2-12-5.55-24-5.55-12,3.34-24,3.34-12,6.57-24,6.57-12-1.89-24-1.89-12,1.1-24,1.1-12-8.87-24-8.87-16.55-4.36-25,4.12,5.53,13,5.53,25.06-3.63,12-3.63,24-2.5,12-2.5,24,2.26,12,2.26,24,4.62,12,4.62,24-8.29,12-8.29,24,3.6,12,3.6,24,1,12,1,24,3.3,12,3.3,24-8.32,12-8.32,24,6.87,12,6.87,24-8.1,12-8.1,24,8.48,12,8.48,24-0.1,12-.1,24-1.57,12-1.57,24-11.8,16.67-3.31,25.18,13.14-1.2,25.13-1.2,12-.1,24-0.1,12,5.38,24,5.38,12-1.18,24-1.18,12-9.14,24-9.14,12,0.87,24,.87,12,5.81,24,5.81,12-4.36,24-4.36,12,8.18,24,8.18,12-9.17,24-9.17,12,2.05,24,2.05,12,0.49,24,.49,12-1.12,24-1.12,12-.92,24-0.92,12,4.52,24,4.52,12-1.55,24-1.55,12,2.31,24,2.31,12-2.93,24-2.93,12-.39,24-0.39,12,0.81,24,.81,12,0.64,24,.64,12-3.55,24-3.55,16.73,13.11,25.2,4.62,1.46-13.23,1.46-25.24,0.22-12,.22-24-7.33-12-7.33-24,2.87-12,2.87-24,5.44-12,5.44-24-3.82-12-3.82-24-1.62-12-1.62-24-2.35-12-2.35-24,9.27-12,9.27-24-7.35-12-7.35-24,2.37-12,2.37-24,0.35-12,.35-24-5.91-12-5.91-24,8.2-12,8.2-24-2.89-11.84-1-23.71C845.19,356.43,847.23,354.52,838.75,346Z" transform="translate(-3.07 -184.41)"/><path class="cls-3" d="M838.75,346c-8.47-8.48-9.33-5.35-21.32-5.35s-12,4.31-24,4.31-12-5.18-24-5.18-12,6.61-24,6.61-12-2.66-24-2.66-12-4.91-24-4.91-12,1.18-24,1.18-12-.51-24-0.51-12-1.11-24-1.11-12,3.78-24,3.78-12,5.84-24,5.84-12-2.19-24-2.19-12-5.17-24-5.17-12-1.68-24-1.68-12,2.5-24,2.5-12,2-24,2-12-5.55-24-5.55-12,3.34-24,3.34-12,6.57-24,6.57-12-1.89-24-1.89-12,1.1-24,1.1-12-8.87-24-8.87-16.55-4.36-25,4.12,5.53,13,5.53,25.06-3.63,12-3.63,24-2.5,12-2.5,24,2.26,12,2.26,24,4.62,12,4.62,24-8.29,12-8.29,24,3.6,12,3.6,24,1,12,1,24,3.3,12,3.3,24-8.32,12-8.32,24,6.87,12,6.87,24-8.1,12-8.1,24,8.48,12,8.48,24-0.1,12-.1,24-1.57,12-1.57,24-11.8,16.67-3.31,25.18,13.14-1.2,25.13-1.2,12-.1,24-0.1,12,5.38,24,5.38,12-1.18,24-1.18,12-9.14,24-9.14,12,0.87,24,.87,12,5.81,24,5.81,12-4.36,24-4.36,12,8.18,24,8.18,12-9.17,24-9.17,12,2.05,24,2.05,12,0.49,24,.49,12-1.12,24-1.12,12-.92,24-0.92,12,4.52,24,4.52,12-1.55,24-1.55,12,2.31,24,2.31,12-2.93,24-2.93,12-.39,24-0.39,12,0.81,24,.81,12,0.64,24,.64,12-3.55,24-3.55,16.73,13.11,25.2,4.62,1.46-13.23,1.46-25.24,0.22-12,.22-24-7.33-12-7.33-24,2.87-12,2.87-24,5.44-12,5.44-24-3.82-12-3.82-24-1.62-12-1.62-24-2.35-12-2.35-24,9.27-12,9.27-24-7.35-12-7.35-24,2.37-12,2.37-24,0.35-12,.35-24-5.91-12-5.91-24,8.2-12,8.2-24-2.89-11.84-1-23.71C845.19,356.43,847.23,354.52,838.75,346Z" transform="translate(-3.07 -184.41)"/><path class="cls-4" d="M248.06,370.26H241.2v0l-9.9,6.56,6.62,2.88-7.71,2.82,14.21,6.7L243,391.38l-8.6,7.26,10,4.47-1.39,1,2.47,3.52-16.91,5.56,26,5.93-15.13,6.52-5.66,7.17,4.78,1.52-1.73.66,11,7.27-10.2,7.26,1,1.39-8.09,3.43,15.26,7.17,0.39,7.17,6.79,4.9-12.67,5,0.05,3.27L237.2,483l0.43,4.53-8.85,5.54,3.32,2.27-2.24,2,9.72,5.16,0.11,1.52-2.46,4.15-2.79,7.27,0.66,0.59-2.75,2.83L245.55,526l-17.89,7.17L234,535l-5.63,1.7,19.45,7.26-2,3.11-9.53,4.75,2,1.09-4,1.84,4.23,3.41-1.31,2,1.51-1.84,4.33,3.49-11.37,4.55,4.43,1.71-1.17,1,4.05,7.17,13.4,7.17-0.11,2-4.79,2.76,2.78,3.25-13.2,6.35,0.1,7.17-9.39,7.17,8.62,7.17,0.42,7.17L247,633.6l0.12,0.19-15,5.22,16.54,6.37L247,647.94l-19.52,7.17,12.63,5.75,0,0,3.16,1.4-7.87,13.39,5.25-5.46,4,5.79H253l1.69-.39,4.46-.34h-4.23l-0.49.77,0.71-.77H274.4l-0.06,0,5.39-3.14,1.13,2.62-0.5-3,6.45-3.76-5.31-7.26-0.73-.47,2.67-2.43,7-2.74L273,647.89l20.9-7.18-7.45-7.18,9.85-7.18-4.19-7.18L283.31,612l-2.44-2.56,8.93-6.2-4.42-7.2-0.56-.43,8.34-5.14-10.93-4.77L283,580.8l-0.1-.07,11.29-4.65-8.48-7.18,4.61-7.18-9.52-6.27,6.76-2.65-2-1.62,6.92-3.81,0.84-7.18-8.4-7.18-2.19-4.13,7-6.77-3.55-1.8,0.43-3.51-3.87-3.15,0.46-2.17L296,504.29l-6.63-3.15,0.22-.25-0.66,0-8.05-3.82L279,494.8l0.18-1.77-0.59-2.17,1.37-.75-1.8-.84-0.56-2.06,0.18-.2,11.66-6.22-3.3-1.49,4.93-3.71,2.42-7.17,5-7.17L280.1,455l4.22-3,1-2.75,3.91-2.35,0.23-5.62,2.68-3.68-8.35-2.69-2.83-2.37-4.62-5.9,6-3.44,0-1.1,8.49-3.92,3.41-7.18,2.21-7.18L290,396.64l-5.44-3.31,3.07-6.15L290,380l-7.54-9.19-2.35,3.13-5.68-3.67H251.69m-0.8,173.26,0,1-1.33.66Zm-4.43,120.21,3.24,1.44-6.29,2Z" transform="translate(-3.07 -184.41)"/><rect class="cls-5" x="249.93" y="182.04" width="75.96" height="316.5"/><polygon class="cls-6" points="286.89 898.72 252.89 898.72 253.89 798.36 242.89 687.94 286.89 687.94 286.89 798.33 286.89 898.72"/><path class="cls-7" d="M296.6,905.58c0,7-3.8,12.69-10.83,12.69S275,912.61,275,905.58s3.75-15.12,10.78-15.12S296.6,898.55,296.6,905.58Z" transform="translate(-3.07 -184.41)"/><path class="cls-7" d="M277,936.24c1.23,7.79-2,14.74-9.78,16S254.25,947.82,253,940s1.51-17.42,9.3-18.66S275.74,928.45,277,936.24Z" transform="translate(-3.07 -184.41)"/><polygon class="cls-6" points="112.89 898.72 78.89 898.72 78.89 798.33 62.89 687.94 116.89 687.94 112.89 798.33 112.89 898.72"/><path class="cls-7" d="M104.52,937c0,7-3.8,12.69-10.83,12.69S82.91,944,82.91,937s3.75-15.12,10.78-15.12S104.52,930,104.52,937Z" transform="translate(-3.07 -184.41)"/><path class="cls-4" d="M247.57,675.7l-6.62,0v0l-9.66,6.56,6.62,2.88L230.2,688l14.21,6.7-1.47,2.12-8.6,7.26,10,4.47-1.39,1,2.47,3.52-16.91,5.56,26,5.93L239.43,731l-5.66,7.17,4.78,1.52-1.73.66,11,7.27-10.2,7.26,1,1.39-8.09,3.43,15.26,7.17,52.75-.25-18.41-6.22,4.22-3,1-2.75,3.91-2.35,0.23-5.62L292.1,743l-8.35-2.69L280.91,738l-4.62-5.9,6-3.44,0-1.1,8.49-3.92,3.41-7.18,2.21-7.18L290,702.06l-5.44-3.31,3.07-6.15,2.32-7.2-7.54-9.19-2.35,3.13-6.16-3.65H251.19" transform="translate(-3.07 -184.41)"/><rect class="cls-5" x="249.91" y="491.29" width="75.96" height="103.95"/><g class="cls-8"><path class="cls-7" d="M253,651v49.5S274.7,687,274.2,680s1-15.87-6.5-22.93S253,651,253,651Z" transform="translate(-3.07 -184.41)"/><path class="cls-7" d="M290.94,764.43c0,6.28-7,9.94-9,15.18-2.29,5.92-5.34,7-9.51,10.64-4.64,4.07-4.73,11.57-10.72,11.57s-12-.76-16.63-4.83c-4.18-3.66-12.76-7-15.05-13-2-5.24,1.27-13.32,1.27-19.6s2.9-12,4.93-17.21c2.29-5.92,3.86-12.62,8-16.28,4.64-4.07,11.46-12.09,17.45-12.09s6.39,15.35,11,19.41c4.18,3.66,13.14,2.66,15.43,8.58A49.21,49.21,0,0,1,290.94,764.43Z" transform="translate(-3.07 -184.41)"/><path class="cls-7" d="M353.94,712.83c0,6.28-3.52,11.47-5.55,16.71-2.29,5.92-4.27,11.18-8.45,14.84-4.64,4.07-9.76,7.37-15.75,7.37s-13.88-.15-18.51-4.22c-4.18-3.66-10.11-9.47-12.4-15.4-2-5.24,6.16-13,6.16-19.3s-3.7-12.34-1.68-17.57c2.29-5.92,11.46-4.66,15.64-8.33,4.64-4.07,4.8-5.87,10.79-5.87s16.48-10,21.12-5.9c4.18,3.66-4.51,17.09-2.23,23C345.12,703.41,353.94,706.56,353.94,712.83Z" transform="translate(-3.07 -184.41)"/></g><g class="cls-9"><path class="cls-7" d="M253,345.55v49.5s21.71-13.5,21.21-20.5,1-15.87-6.5-22.93S253,345.55,253,345.55Z" transform="translate(-3.07 -184.41)"/><path class="cls-7" d="M253,651.29v49.5s21.71-13.5,21.21-20.5,1-15.87-6.5-22.93S253,651.29,253,651.29Z" transform="translate(-3.07 -184.41)"/><path class="cls-7" d="M291,459c0,6.28-7,9.94-9,15.18-2.29,5.92-5.34,7-9.51,10.64-4.64,4.07-4.73,11.57-10.72,11.57s-12-.76-16.63-4.83c-4.18-3.66-12.76-7-15.05-13-2-5.24,1.27-13.32,1.27-19.6s2.9-12,4.93-17.21c2.29-5.92,3.86-12.62,8-16.28,4.64-4.07,11.46-12.09,17.45-12.09s6.39,15.35,11,19.41c4.18,3.66,13.14,2.66,15.43,8.58A49.21,49.21,0,0,1,291,459Z" transform="translate(-3.07 -184.41)"/><path class="cls-7" d="M347.87,635c0,6.28,4.16,11.36,2.14,16.6-2.29,5.92-7.05,7.79-11.23,11.45-4.64,4.07-6.68,3.6-12.67,3.6s-8.21.66-12.84-3.41c-4.18-3.66-18.42-2-20.71-7.91-2-5.24,6.45-14,6.45-20.33s-0.69-12.08,1.34-17.32a35.57,35.57,0,0,1,10.24-14c4.64-4.07,9.55-8.07,15.54-8.07s6.44,9.09,11.08,13.16c4.18,3.66,16.08,1.56,18.37,7.49C357.58,621.51,347.87,628.73,347.87,635Z" transform="translate(-3.07 -184.41)"/><path class="cls-7" d="M356.18,411.78a54.12,54.12,0,0,1-3.3,18.44c-2.29,5.92-12.13,5.59-16.3,9.25-4.64,4.07-6.38,4.76-12.37,4.76s-12.66,4.93-17.3.87c-4.18-3.66-10.23-8.51-12.52-14.44-2-5.24,1.32-12.6,1.32-18.88S292,398,294,392.76c2.29-5.92,12.78-6,17-9.64,4.64-4.07,7.22-3.2,13.21-3.2s17-10.45,21.63-6.39c4.18,3.66.23,15.64,2.52,21.56C350.38,400.32,356.18,405.5,356.18,411.78Z" transform="translate(-3.07 -184.41)"/><path class="cls-7" d="M350.07,504.08c0,6.28-9.4,10.21-11.43,15.45-2.29,5.92-3.89,9.15-8.06,12.82-4.64,4.07-6.88,16.14-12.87,16.14s-11.07-8.83-15.71-12.9c-4.18-3.66-15.85-5.14-18.14-11.06-2-5.24,7.52-14.16,7.52-20.44s3.37-10.21,5.39-15.45c2.29-5.92,2.49-10.76,6.66-14.42,4.64-4.07,8.29-11.55,14.28-11.55a30.62,30.62,0,0,1,18.29,7c4.18,3.66,13.09,8.15,15.38,14.07C353.4,488.94,350.07,497.8,350.07,504.08Z" transform="translate(-3.07 -184.41)"/><path class="cls-7" d="M277.67,533.26c0,6.42-2.75,13.51-7,17.71s-11.29,9.37-17.71,9.37-13.55-5.11-17.76-9.32-3.48-11.34-3.48-17.76-0.11-12.94,4.1-17.15,10.73-10.29,17.15-10.29,9.41,9.61,13.62,13.81S277.67,526.84,277.67,533.26Z" transform="translate(-3.07 -184.41)"/><path class="cls-7" d="M290.35,619.26c0,6.42-9.08,9.58-13.29,13.79S269.69,644,263.27,644a26.4,26.4,0,0,1-17.68-7c-4.21-4.21-9.45-11.26-9.45-17.68s7.39-11.33,11.59-15.54,9.12-3.75,15.54-3.75,13.82-2.94,18,1.26S290.35,612.84,290.35,619.26Z" transform="translate(-3.07 -184.41)"/><path class="cls-7" d="M323.78,571.08c0,6.42-.62,12.22-4.83,16.43s-10,10.71-16.43,10.71-10.95-7.77-15.16-12-11.3-8.74-11.3-15.16,3.84-14.2,8-18.41,12-2.37,18.41-2.37,12.48-.12,16.69,4.09S323.78,564.66,323.78,571.08Z" transform="translate(-3.07 -184.41)"/></g><polygon class="cls-5" points="198 739.89 198.11 739.96 198.11 739.86 198 739.89"/><path class="cls-4" d="M255.14,370.05h19.26l-0.06,0,5.39-3.14,1.13,2.62-0.5-3,6.45-3.76-5.31-7.26-0.73-.47,2.67-2.43,7-2.74L273,342.66l20.9-7.18-7.45-7.18,9.85-7.18-4.19-7.18-3.31-2.7H263.1L253.45,314l10.42,7.17L260,328.37l2.53-.65-4,5.22,0.13,7.21L247,342.71l19.48,7.17-17.37,5.75,0,0,3.16,1.4-8.49,1.43,6.87,6.5-9.41,5.31,7.68,0m-1.79,0h6.43l-0.3-.22" transform="translate(-3.07 -184.41)"/><path class="cls-10" d="M313.88,253.83c4.25,12.41,13.49,20.48,31.37,14.37s28.27-23,24-35.44-18.29-6.16-36.17,0S309.63,241.42,313.88,253.83Z" transform="translate(-3.07 -184.41)"/><path class="cls-11" d="M452.31,338.58h0c15-29.37,13.78-56.66-18.14-69.64l-5.91-2.32c-17.2-.69-41.67,8.16-54,24.84-13.8,18.68-14,42.84-5.25,59.82l12.66,8.44C410.86,378,439.25,364.09,452.31,338.58Z" transform="translate(-3.07 -184.41)"/><path class="cls-5" d="M336,232.95a19.6,19.6,0,0,0-7-2v-0.16c-29.92-10.71-42.31-4-42.31-4C265.22,234.44,253,245.32,253,264.46V370.28h76v-44.8l40,25.8c-8.73-17-8.55-41.15,5.25-59.82,12.33-16.68,36.8-25.53,54-24.84Z" transform="translate(-3.07 -184.41)"/><circle cx="294.12" cy="70.18" r="5.82"/><circle cx="326.91" cy="64.36" r="5.82"/><path class="cls-5" d="M270.37,202.74h21.5a0,0,0,0,1,0,0v31.75a10.75,10.75,0,0,1-10.75,10.75h0a10.75,10.75,0,0,1-10.75-10.75V202.74a0,0,0,0,1,0,0Z" transform="translate(-53.51 -99.25) rotate(-15.83)"/><circle class="cls-7" cx="276.33" cy="203.55" r="13.5" transform="translate(-48.11 -101.33) rotate(-15.83)"/><path class="cls-5" d="M303.78,197.82h21.5a0,0,0,0,1,0,0v31.75a10.75,10.75,0,0,1-10.75,10.75h0a10.75,10.75,0,0,1-10.75-10.75V197.82a0,0,0,0,1,0,0Z" transform="translate(-21.83 -154.66) rotate(-5.26)"/><circle class="cls-7" cx="312.58" cy="197.91" r="13.5" transform="translate(-19.9 -154.93) rotate(-5.26)"/><ellipse class="cls-7" cx="413.58" cy="302.81" rx="2.93" ry="4.38" transform="translate(-61.47 -81.54) rotate(-13.25)"/><ellipse class="cls-7" cx="433.7" cy="298.07" rx="2.93" ry="4.38" transform="translate(-59.85 -77.05) rotate(-13.25)"/><path class="cls-12" d="M449.62,343.37c-8.08,10.6-45.59,21.07-70.09,1.57" transform="translate(-3.07 -184.41)"/><g class="cls-13"><path class="cls-7" d="M253,345.33v49.5s21.71-13.5,21.21-20.5,1-15.87-6.5-22.93S253,345.33,253,345.33Z" transform="translate(-3.07 -184.41)"/><path class="cls-7" d="M312.38,349.62c0,4.87-.53,11.51-3.72,14.7s-9.84,3.07-14.7,3.07-8.41-3-11.6-6.18-7.41-6.73-7.41-11.6,4-8.68,7.15-11.87,7-8.44,11.87-8.44,11.28,2.65,14.47,5.84S312.38,344.75,312.38,349.62Z" transform="translate(-3.07 -184.41)"/><path class="cls-7" d="M277.63,317.33c0,4.26-1.75,9.4-4.55,12.19s-7.93,5.41-12.19,5.41-8.27-3.74-11.07-6.54-5.95-6.8-5.95-11.07,3-8.45,5.76-11.25,7-2.57,11.25-2.57,6.63,1.6,9.42,4.4S277.63,313.06,277.63,317.33Z" transform="translate(-3.07 -184.41)"/><path class="cls-7" d="M335.59,329.9c-2.78,2.78-6.34,2.1-10.57,2.1s-6.36-.76-9.14-3.54-7.85-4.9-7.85-9.14-1.26-3.71,1.51-6.48" transform="translate(-3.07 -184.41)"/><path class="cls-7" d="M271.15,255.95c0,5.11-3.79,8.37-8.89,8.37s-8.71-3.26-8.71-8.37,3.6-9.85,8.71-9.85S271.15,250.84,271.15,255.95Z" transform="translate(-3.07 -184.41)"/><path class="cls-7" d="M292.94,302.81a6.37,6.37,0,0,1-6.62,6.27,6.23,6.23,0,0,1-6.45-6.27,6.52,6.52,0,0,1,6.45-6.61A6.66,6.66,0,0,1,292.94,302.81Z" transform="translate(-3.07 -184.41)"/></g><path class="cls-10" d="M279.28,267.49c0,13.12-6.68,23.75-27.25,23.75s-37.25-12.63-37.25-25.75,16.68-11.75,37.25-11.75S279.28,254.37,279.28,267.49Z" transform="translate(-3.07 -184.41)"/><polygon class="cls-14" points="290.89 898.72 250.89 898.72 253.89 874.72 287.89 871.72 290.89 898.72"/><polygon class="cls-5" points="0 744.89 0.11 744.96 0.11 744.86 0 744.89"/><polygon class="cls-14" points="115.56 903.72 75.56 903.72 78.56 879.72 112.56 876.72 115.56 903.72"/><path class="cls-5" d="M124.86,776.46C39.25,788,24.32,820.83,24,875.35h0v0.08c0,0.18,0,.35,0,0.53s0,0.18,0,.28,0,0.12,0,.18c0,0.31,0,.62,0,0.93h0a49.72,49.72,0,0,0,1.17,10L35,985.77l-11,94.36H58l10-94.39,5.33-58.87c27.24,6.88,63.55,7,103.17,2.26,49.79-6,86-17.73,110.59-33.69l7.91,87.3v100.39h34V753.49Z" transform="translate(-3.07 -184.41)"/><rect class="cls-5" x="19.68" y="859.36" width="9.24" height="136.33" transform="translate(65.43 -183.68) rotate(4.23)"/><path class="cls-15" d="M15.09,992.32c0,0.15,0,.27,0,0.43-0.22,4.55-2.26.82-3.36,0.93a10.1,10.1,0,0,1,2-1.57l-0.41,0c-1.69,2.8-7.57-1.22-7.35,4.3,0.13,3.37,2.85.22,5.34-2.24a5.17,5.17,0,0,0-.24,1.79c-0.07,6,1.82-5.32,2,.68a7.57,7.57,0,0,1,0,1.11c-3.09,1.91-8,2.3-7.47,6.89,0.18,1.46.87,1.39,1.83,0.52,0.32,0.51.86-.4,1.45-1.62,0.8-1,1.67-2.23,2.55-3.47a3.72,3.72,0,0,1,.28,1.24c0.75,7-3.64,2-2.59,8.83,0.46,3,1.37.35,2.35-2.62,0,0.11,0,.23.06,0.35,0.21,1,.38,1.35.52,1.34a4.86,4.86,0,0,0-.8,1.86c-2,2-4.12,3.88-3.19,7.43,0.73,2.78,2-.54,3.42-4.67,0.06,0.21.11,0.41,0.19,0.64,0.36,1,.63,1.26.84,1q-0.08.23-.15,0.47c-2.34,3.32-4.52,6.57-3.21,9.66,1,2.36,2.21-1.24,3.49-6.12,0.08,0.18.18,0.36,0.29,0.54,0.5,0.84.9,0.82,1.25,0.2a4.09,4.09,0,0,0,.77,2.35,4.26,4.26,0,0,0,.46.56c-0.53,1.67-.56,3.14.9,4.13a1,1,0,0,0,1,.24c-0.14,1.45.15,2.42,1.35,2.48s1.64-1.69,1.52-4.27a1.52,1.52,0,0,0,.74-0.1c1.39-.48,1.62-2,1.39-4a5,5,0,0,0-.23-1.46v0a1.59,1.59,0,0,0,.83-0.51,3.41,3.41,0,0,0,.48-0.57c-0.36,5.25-1,11,1.09,8.61,2.79-3.21,0-6.15-.66-9.48A4.35,4.35,0,0,0,24,1017c0.25,0.57.61,0.58,1.16-.3a11.27,11.27,0,0,0,.67-1.23l0.34,0.62c0-.52,0-1,0-1.44,0.83-2.64-1.36-3-.87-5.82,0.33,0.37.66,0.74,1,1.12a10.07,10.07,0,0,0-.4-2.9c0.11-.25.22-0.5,0.36-0.79l0.08-.15c0.32,1,.64,2.05,1,2.94,0,0.68-.09,1.37-0.14,2a11.74,11.74,0,0,0-.85-1.15c0.2,3.94,0,9.78,1.37,6.15a5.65,5.65,0,0,0,.37-2.74,9.17,9.17,0,0,0,.54-1.81c0.3,0.16.57-.14,0.81-1.08,1.28-5.09-.53-3-0.78-4.95a5,5,0,0,0,0-1.36c0.05-.45.13-1,0.26-1.63,1.2-5.84,1.66,7.87,2.63,1.9,0.07-.4.11-0.75,0.13-1.06,0.55,0.38,1,.17,1.19-1,0.44-2.3-.69-3.47-2.28-4.31,0.05-.29.1-0.65,0.15-1.2,0.33-3.86-2.34-1.92-4.28-1.49-0.74-1.07-1.41-1.76-1.91-1.62,0-.19,0-0.38,0-0.61L15,992.25A0.87,0.87,0,0,1,15.09,992.32Zm14.74,5.46c-0.37-.17-0.75-0.33-1.13-0.48C29.07,994.83,29.46,996.53,29.82,997.79Zm0,3.38c-0.7-.08-1.31-0.37-1.28-2.17C29,999.75,29.4,1000.5,29.81,1001.17ZM11.39,1000c0.52-.74,1-1.47,1.56-2.16A2.29,2.29,0,0,1,11.39,1000Zm5.77,20c0-.34-0.09-0.69-0.12-1-0.31.78-.67,1.56-1,2.33-0.12-1.53-.44-3.64-0.61-5.43-0.16.31-.32,0.62-0.46,0.93,0.12-.77.24-1.62,0.35-2.52,0,0.48.05,1,.1,1.59l0.22-.42a3.1,3.1,0,0,0,1,2.54l0.29,0.24q0,0.37.08,0.75l0.21-.56a0.69,0.69,0,0,0,.34.09C17.43,1019,17.29,1019.5,17.16,1020Zm6.34-6.06c-0.21-.72-0.47-1.47-0.74-2.23C23.22,1011.83,23.43,1012.68,23.5,1013.92Zm-0.45-12.15,0-.06a36.66,36.66,0,0,1,.31,4.63A5.75,5.75,0,0,1,23.05,1001.78Zm-6.65,3.89-0.08.2,0-.34,0,0.13c0.7-1.61,1.38-2.22,2-1.06a5.14,5.14,0,0,1,.6,2c-0.12.32-.25,0.63-0.39,1l0.15,0.11a8.5,8.5,0,0,0-.3,2.31,9.1,9.1,0,0,0,.53-2.06c0.71,0.89.72,2.35,0.42,4.06a1.71,1.71,0,0,1,.93-0.1c-0.18-1.8,0-3.33.94-4.23-0.13-.4-0.24-0.79-0.35-1.17a1.93,1.93,0,0,1,.44,1.1l-0.09.07,0.14,0.42a21.34,21.34,0,0,1-.39,4.23,1.08,1.08,0,0,0-.69-0.41c0.06,0.65.17,1.33,0.31,2a3.81,3.81,0,0,0-.12,1.17l0.17-.92c0.13,0.67.29,1.35,0.45,2a7.48,7.48,0,0,0,.11-3.48,4.42,4.42,0,0,1,.65-0.67,1,1,0,0,1,.84-0.31c-0.38,2.23-.95,4.77-1.13,6.47-0.15-.66-0.32-1.33-0.48-2q-0.09.46-.19,0.94a7.54,7.54,0,0,1-.43-2.06c-0.37,1.91-.75,3.81-1,5.38l-0.17-1.19q-0.13.54-.28,1.09c-0.26-1.46-.59-3-0.74-4.42L18,1017.08c0-.44-0.09-1-0.18-1.52a4,4,0,0,0-.23-1.37l-0.08-.44a1,1,0,0,1,.81-0.07,9.79,9.79,0,0,0,0,2.22c0.13-.44.26-0.87,0.39-1.3,0.18,1.5.41,3.07,0.63,4.63,0.57-2.39.74-4.46-.45-5.28,0.19-.69.34-1.36,0.46-2a1.49,1.49,0,0,0-.83.84,26.89,26.89,0,0,1-.12-2.84,20.69,20.69,0,0,1-1.16,2.5c-0.09-.52-0.18-1-0.25-1.53-0.25.54-.48,1.07-0.68,1.58-0.42-.3-0.68-0.25-0.84.07,0.09-.75.17-1.51,0.26-2.28A7.26,7.26,0,0,0,16.41,1005.66Zm-1.21-1.25,0,0.09a6.34,6.34,0,0,1,.61,2.62c-0.4,1.16-.8,2.56-1.2,4.08-0.64,1.2-1.4,2.34-1.93,3.51a61.15,61.15,0,0,0,.64-6.18,6,6,0,0,0,1-3,22.23,22.23,0,0,0-1,2.26q0-.36.07-0.7c-0.42.65-.92,1.21-1.36,1.81a43.26,43.26,0,0,0,.58-5.24c0.6-1.37,1.15-1.84,1.53,0a8.54,8.54,0,0,0-.75,3.43,5.3,5.3,0,0,0,.88-2.55,6.57,6.57,0,0,1,0,1A3.7,3.7,0,0,1,15.2,1004.41Z" transform="translate(-3.07 -184.41)"/><path class="cls-15" d="M13.68,996.55c-2.84-.61-6.53-2.7-6.57,1.18,0,2,1.06,2,2.52,1.3a5.89,5.89,0,0,0-.19,1.41,5,5,0,0,0,.12,1.6c-2.18.46-3.93,1.3-3.76,3.87a4.22,4.22,0,0,0,.09.62,4.29,4.29,0,0,0-.27,1.88c0.17,4.25,3.63-1.53,5.87-3.35a8.88,8.88,0,0,1-2.62.19c1-1.18,2-2.61,2.92-3.6l-1.1.17c0.86-.92,1.91-2.5,2.29-1.21a5.27,5.27,0,0,0-1.19,1c0.44-.07.88-0.14,1.31-0.23,0,0.2,0,.39,0,0.64a3.28,3.28,0,0,1-.79,2.5,0.67,0.67,0,0,1,.82.57,11.35,11.35,0,0,0-.34,1.09,3.34,3.34,0,0,0,.49-0.34c0,0.05,0,.09,0,0.14a5.58,5.58,0,0,1-.32,2.67,1,1,0,0,1,.33.56,24.94,24.94,0,0,0-.91,2.53,9.47,9.47,0,0,0,1.12-1.51c1,6.41-2.58,2.41-1.51,8.14a6.1,6.1,0,0,0-1,4.2c-1.62,2.22-2.73,4.48-1.82,7s1.81-.59,2.66-4.7c0.89,1.22,1.28-1.91,1.65-5.5a20.15,20.15,0,0,0,2.19-3.29c0-.09-0.07-0.18-0.11-0.26-0.58-1.25-1.1-1-1.59.18-0.1.56-.2,1.11-0.3,1.62,0-.39.08-0.78,0.13-1.17,0.06-.16.12-0.31,0.18-0.45l0.13-.7a7.65,7.65,0,0,0,1.4-4.12,0.37,0.37,0,0,0-.56,0,3.76,3.76,0,0,1,.47-1.15,6.57,6.57,0,0,1,.09,1.11,2.17,2.17,0,0,1,.51.68,9,9,0,0,1,.53,1.15,7.62,7.62,0,0,1-.87,3.06,6.32,6.32,0,0,1,.37,1.22c-0.83,1.3-1.81,2.4-.74,4.5v0c-1.64,3.58-4.86,6.79-2.67,10.49,0.82,1.39,1.71,1.62,2.56,1a2,2,0,0,0,.51.52c0.76,0.52,1.22.17,1.48-.73a2,2,0,0,0,1,.58,0.94,0.94,0,0,0,1.1-.39c0.13,1.06.52,1.6,1.35,1.31,1.44-.5,1.59-2.32,1.25-4.68a13.66,13.66,0,0,0,1.38-3.27,2.51,2.51,0,0,0,.76-0.67,4,4,0,0,0,1-2.43c0.2,5.72.17,12.22,2,9.34,1.58-2.53,0-6.23-2-10.12,0-.17,0-0.35-0.05-0.53,0-.64-0.06-1.25-0.1-1.83a10.35,10.35,0,0,0,.76,3.37c0.42,1.46.9,1.93,1.51,0.49,1.34-3.21.72-4.1,0.07-5a10.46,10.46,0,0,0-.77-2,8.64,8.64,0,0,1,.62-3.32c0-.14.09-0.26,0.14-0.37l-0.17-.15c0.67-3.61-2.55-1.92-1.25-7,0.68,0.87,1.3,5.09,1.91,6.31,0.12,0,.21.07,0.29,0.32,0.2,0,.39-0.34.58-1.36,1.12-5.9-1.53-.89-1.24-5l1.15,0.81a13.43,13.43,0,0,0-1-2.18h0a2.62,2.62,0,0,1,.48-1.37c1.21,2,2.32,3.53,2.88,2.41,1.25,1.71,2.44,3.18,2.75.36,0.38-3.48-1.07-2.68-2.34-2.41,0.28-3-1.1-1.27-1.68-2.07,0-.19,0-0.36,0-0.58,0.44-6.1,3.09,3.46,3.3-2.66,0.05-1.42-.22-1.91-0.66-1.93-0.57-1.84-3,0-4.63,0a3.6,3.6,0,0,1,.45-1.73l-0.41,0a0.9,0.9,0,0,1-1.34-.14l-9.41-.95s0,0,0,.07a3.21,3.21,0,0,1-.35,1.43,1.07,1.07,0,0,1,.6.71c-0.39.67-1.09,0.6-2,.13a1.64,1.64,0,0,0,1.35-.84,2.82,2.82,0,0,0-2.07.4,34.43,34.43,0,0,1-3-2.44L6,993.24C6.45,997,12.59,993.36,13.68,996.55Zm16.83,1.6c-0.33.27-.65,0.53-1,0.76C29.8,997.39,30.15,997.51,30.51,998.15Zm-6,19.4c0-.13-0.06-0.24-0.1-0.35s0-.2,0-0.29l0.09,0.64c0.07,0.27.13,0.59,0.18,0.94s0,0.45.06,0.67Zm0.39-9.61c0.09,1,.14,2.14.19,3.3A5.25,5.25,0,0,1,24.88,1007.94ZM23,1009.82a8.81,8.81,0,0,0,.61,2.17c0.26,1.21.49,2.69,0.72,4.2a0.58,0.58,0,0,0-.15-0.23c0,0.26.05,0.53,0.08,0.79-0.27-.52-0.63-0.59-1.11-0.08l-0.12-.29,0.07-.07c0.53-.45.88-0.53,1.08-0.35a14.12,14.12,0,0,0-2.26-6.52l-0.1-.11C22.23,1008.73,22.61,1009,23,1009.82Zm-3.9,14.3-0.37,1.33q0.17-.87.31-1.79C19,1023.82,19,1024,19,1024.12Zm0.33-9.57c0,0.12,0,.25-0.06.37,0-.17,0-0.31-0.08-0.44Zm-0.25-1.32c0,0.21-.06.43-0.09,0.65a0.69,0.69,0,0,0-.16-0.21A2.16,2.16,0,0,1,19.14,1013.23ZM18.05,1028c0,0.2-.07.39-0.11,0.58l-0.31.72C17.79,1028.93,17.92,1028.5,18.05,1028ZM13.85,998.1c-0.29,4-2,1.11-3.22.41,1-.57,2.08-1.29,3.08-1.86A3.93,3.93,0,0,1,13.85,998.1Z" transform="translate(-3.07 -184.41)"/><g class="cls-16"><path class="cls-7" d="M134,799.93c0,6.28,4.16,11.36,2.14,16.6-2.29,5.92-7.05,7.79-11.23,11.45-4.64,4.07-6.68,3.6-12.67,3.6s-8.21.66-12.84-3.41c-4.18-3.66-18.42-2-20.71-7.91-2-5.24,6.45-14,6.45-20.33s-0.69-12.08,1.34-17.32a35.57,35.57,0,0,1,10.24-14c4.64-4.07,9.55-8.07,15.54-8.07s6.44,9.09,11.08,13.16c4.18,3.66,16.08,1.56,18.37,7.49C143.69,786.43,134,793.66,134,799.93Z" transform="translate(-3.07 -184.41)"/><path class="cls-7" d="M362.16,802.08c0,6.28,0,14.18-2,19.42-2.29,5.92-6.49,13.93-10.66,17.59-4.64,4.07-14.55,2.11-20.54,2.11s-14.71.59-19.35-3.47c-4.18-3.66-5.76-11.78-8.05-17.7-2-5.24,3.1-11.67,3.1-17.95s2.22-9.87,4.24-15.11c2.29-5.92,1.86-10.81,6-14.47,4.64-4.07,8-8.89,14-8.89s15.8-2.5,20.44,1.57c4.18,3.66.55,14.62,2.84,20.55C354.25,791,362.16,795.8,362.16,802.08Z" transform="translate(-3.07 -184.41)"/><path class="cls-7" d="M297.75,834.41c0,6.42-6.45,8.92-10.66,13.12s-6.7,12.3-13.12,12.3-12.22-4.79-16.43-9-3-10-3-16.43,2.36-8.69,6.57-12.89,6.47-9.68,12.89-9.68,12.51,1.65,16.72,5.86A24.06,24.06,0,0,1,297.75,834.41Z" transform="translate(-3.07 -184.41)"/><path class="cls-7" d="M84.58,913.4c0,8.82-4.77,15.92-13.59,15.92s-13.53-7.1-13.53-15.92,4.71-19,13.53-19S84.58,904.58,84.58,913.4Z" transform="translate(-3.07 -184.41)"/><path class="cls-7" d="M305.52,937.51c-2.42,7.67-8.51,12.55-16.19,10.13s-9.82-9.89-7.41-17.56,9.29-15.22,17-12.8S307.93,929.84,305.52,937.51Z" transform="translate(-3.07 -184.41)"/><path class="cls-7" d="M340.41,950.84c-2.42,7.67-8.51,12.55-16.19,10.13s-9.82-9.89-7.41-17.56,9.29-15.22,17-12.8S342.83,943.17,340.41,950.84Z" transform="translate(-3.07 -184.41)"/><path class="cls-7" d="M309.36,977.3c-2.22,7-7.81,11.52-14.85,9.3s-9-9.07-6.8-16.12,8.53-14,15.57-11.75S311.58,970.26,309.36,977.3Z" transform="translate(-3.07 -184.41)"/><path class="cls-7" d="M49,942.32c0,7.15-3.87,12.91-11,12.91s-11-5.76-11-12.91,3.82-15.39,11-15.39S49,935.17,49,942.32Z" transform="translate(-3.07 -184.41)"/><path class="cls-7" d="M50.11,985.59c-1.5,7-6.48,11.82-13.48,10.32s-9.52-7.93-8-14.92,7-14.25,13.95-12.75S51.61,978.6,50.11,985.59Z" transform="translate(-3.07 -184.41)"/><path class="cls-7" d="M75.37,964.89c0,6.1-3.3,11-9.4,11s-9.36-4.92-9.36-11,3.26-13.13,9.36-13.13S75.37,958.79,75.37,964.89Z" transform="translate(-3.07 -184.41)"/><path class="cls-7" d="M146.41,928c-3.6,5.32-11.13,6.08-17,7.21s-14.29,4.94-19.6,1.34S99.09,924.84,98,919s2.5-14.32,6.1-19.64,10.37-10.58,16.21-11.71,15-.06,20.29,3.54,6.81,12.23,7.94,18.08S150,922.71,146.41,928Z" transform="translate(-3.07 -184.41)"/><path class="cls-7" d="M213.46,889.49c0,6.42-3.47,10-7.68,14.16s-7.74,5-14.16,5-10.06-.64-14.27-4.84-13.82-7.85-13.82-14.27,8.35-11.32,12.56-15.53,9.11-7.52,15.53-7.52a22.39,22.39,0,0,1,16,7C211.84,877.68,213.46,883.07,213.46,889.49Z" transform="translate(-3.07 -184.41)"/><path class="cls-7" d="M103.56,870c-1.93,6.12-8.51,10.77-13.79,13.52s-11.1-.12-17.22-2.05-8.32-5.11-11.07-10.38-5-9.2-3.12-15.32,4.26-11.47,9.54-14.22,12.76-7.21,18.88-5.28,8.11,10.7,10.86,16S105.49,863.88,103.56,870Z" transform="translate(-3.07 -184.41)"/><path class="cls-7" d="M329.24,883.56c0,6.42-3.77,11.37-8,15.58s-9.16,7.26-15.58,7.26-12.41-2-16.62-6.22-8.75-10.2-8.75-16.62,2.51-14.44,6.72-18.65S299.28,863,305.7,863s12.39-.27,16.6,3.94A23.68,23.68,0,0,1,329.24,883.56Z" transform="translate(-3.07 -184.41)"/><path class="cls-7" d="M260.1,889.8c0,4.77,2.24,9.27,1,13.31-1.41,4.74-5.8,6.86-8.44,9.93-3.25,3.79-5,11.74-9.3,11.74s-9.2-5.25-12.45-9c-2.64-3.07-8.12-6.63-9.53-11.37-1.2-4,2.1-9.81,2.1-14.58S226,881,227.22,877c1.41-4.74.48-10.56,3.12-13.62,3.25-3.79,8.72-3.61,13.06-3.61s11.16-1.34,14.42,2.45A40.25,40.25,0,0,1,265,875.36C266.16,879.4,260.1,885,260.1,889.8Z" transform="translate(-3.07 -184.41)"/><path class="cls-7" d="M238.11,805.62c3.76,3.23,4.94,5,5.06,10.6,0.1,4.6,5.82,11.12,3.6,16.23-1.9,4.38-11,4.75-14.52,8.84s-6,7.53-10.08,10.07c-4.72,3-8.07,7.21-12.63,7.81-5.54.73-8.67-2.59-12.43-5.81s-11.2-5.75-11.32-11.33c-0.1-4.6,3.65-10.2,5.87-15.32,1.9-4.38,2.39-11.11,5.9-15.2s10.55-4.85,14.59-7.4c4.72-3,9.92-3,14.48-3.62C232.18,799.77,234.35,802.39,238.11,805.62Z" transform="translate(-3.07 -184.41)"/><path class="cls-7" d="M159.74,836.48c3.07,2.64,4.24,4.19,4.65,8.48,0.35,3.73,5.14,8.66,3.56,12.75-1.38,3.57-8.56,4.06-11.36,7.32s-4.81,5.89-8.12,7.79c-3.81,2.18-6.65,5.37-10.39,5.58-4.3.25-6.76-2.6-9.83-5.24s-9.16-4.36-9.57-8.65c-0.35-3.73,2.35-8.42,3.93-12.52,1.38-3.57,1.73-9,4.53-12.26s8.46-3.83,11.78-5.73c3.81-2.18,7.93-2,11.67-2.21C154.87,831.55,156.67,833.85,159.74,836.48Z" transform="translate(-3.07 -184.41)"/><path class="cls-7" d="M290.61,769.39c0,5.75-1,12.49-3.71,17.13s-10.27,5.4-15.06,8.17-8.86,6.45-14.6,6.45-9-5.43-13.64-8.12-7.88-4.82-10.65-9.61-11.15-8.27-11.15-14,8.91-9.12,11.59-13.76,4.78-8.2,9.57-11,8.53-6.76,14.28-6.76,9.6,4.14,14.24,6.82,13.59,2.21,16.36,7S290.61,763.64,290.61,769.39Z" transform="translate(-3.07 -184.41)"/><path class="cls-7" d="M201.46,779.65c0,5.06-2.05,9.53-3.34,13.82-1.51,5-3,9.42-5.85,12.66-3.47,4-7.46,6.8-12.08,6.8s-10.34-1.32-13.81-5.3c-2.82-3.24-6.38-8-7.89-13-1.29-4.29,3.15-9.89,3.15-15s-1.93-9.91-.64-14.2c1.51-5,7.37-6.34,10.2-9.59,3.47-4,4.36-5.59,9-5.59s12-4,15.43,0c2.82,3.24-2,11.46-.48,16.48C196.43,771,201.46,774.59,201.46,779.65Z" transform="translate(-3.07 -184.41)"/><path class="cls-7" d="M53.88,879c0.79,5-.53,9.74-1.13,14.17-0.71,5.19-1.52,9.77-3.81,13.42-2.8,4.47-6.31,7.88-10.87,8.6s-10.41.3-14.45-3.09c-3.3-2.76-7.54-6.91-9.82-11.64-1.94-4,1.53-10.25.74-15.25s-3.43-9.49-2.83-13.93c0.71-5.19,6.27-7.43,8.55-11.08,2.8-4.47,3.46-6.22,8-6.94s11.18-5.78,15.23-2.39c3.3,2.76-.13,11.59,2.15,16.32C47.6,871.24,53.09,874,53.88,879Z" transform="translate(-3.07 -184.41)"/><path class="cls-7" d="M66.32,797.15c1.55,4.82,1,9.7,1.09,14.18,0.1,5.24,0,9.9-1.72,13.85-2.08,4.85-5,8.75-9.43,10.16S46,837.2,41.52,834.47c-3.68-2.22-8.49-5.67-11.46-10-2.54-3.69-.16-10.32-1.71-15.13s-4.8-8.87-4.88-13.34c-0.1-5.24,5-8.35,6.66-12.3,2.08-4.85,2.53-6.71,6.92-8.12s10.14-7.28,14.66-4.55c3.68,2.22,1.77,11.35,4.74,15.67C59,790.39,64.77,792.33,66.32,797.15Z" transform="translate(-3.07 -184.41)"/></g><polygon class="cls-14" points="59.68 903.72 19.68 903.72 22.68 879.72 56.68 876.72 59.68 903.72"/><polygon class="cls-14" points="328.89 898.72 288.89 898.72 291.89 874.72 325.89 871.72 328.89 898.72"/></svg>