<svg id="レイヤー_1" data-name="レイヤー 1" xmlns="http://www.w3.org/2000/svg" xmlns:xlink="http://www.w3.org/1999/xlink" viewBox="0 0 670.16 225.31"><defs><style>.cls-1,.cls-2{fill:none;}.cls-2{stroke:#8cc63f;stroke-miterlimit:10;}.cls-3{fill:#a67c52;}.cls-4{fill:#c69c6d;}.cls-5{clip-path:url(#clip-path);}</style><clipPath id="clip-path" transform="translate(-1824.94 -380.69)"><polygon class="cls-1" points="2479.34 601.45 2408.4 595.4 2338.41 599.71 2268.41 598.43 2198.41 600.47 2128.41 596.62 2058.41 601.09 1988.41 595.63 1918.4 606 1845.37 603.23 1848.17 518.66 1844.36 433.24 1918.4 436.63 1988.4 430.52 2058.4 438.61 2128.39 435.68 2198.39 441.85 2268.39 435.48 2338.39 439.45 2408.4 440.33 2477.91 437.11 2474.24 518.69 2479.34 601.45"/></clipPath></defs><title>logo</title><path class="cls-2" d="M2182.4,577" transform="translate(-1824.94 -380.69)"/><rect class="cls-3" x="110.24" width="26.22" height="64.48"/><rect class="cls-3" x="502.24" width="26.22" height="64.48"/><polygon class="cls-4" points="654.4 220.76 583.46 214.71 513.46 219.02 443.46 217.75 373.46 219.78 303.47 215.93 233.47 220.4 163.47 214.94 93.46 225.31 20.42 222.54 23.23 137.97 19.42 52.55 93.45 55.95 163.45 49.83 233.45 57.92 303.45 54.99 373.45 61.16 443.45 54.79 513.45 58.76 583.45 59.65 652.97 56.42 649.29 138 654.4 220.76"/><g class="cls-5"><polygon class="cls-3" points="664.92 84.78 590.79 79.73 516.91 87.89 443.02 86.82 369.13 86.49 295.25 81 221.36 87.48 147.47 88.61 73.58 82.88 0.06 80.21 0 75.34 73.57 67.65 147.46 75.65 221.34 77.25 295.23 70.92 369.12 77.63 443 69.73 516.89 69.66 590.79 68.3 664.32 75.28 664.92 84.78"/><polygon class="cls-3" points="669.92 115.81 595.52 106.76 521.63 117.47 447.75 109.5 373.86 112.6 299.98 116.78 226.09 107.09 152.2 116.46 78.3 118.28 3.95 115.41 5.17 107.62 78.3 97.92 152.18 100.28 226.07 97.86 299.96 96.14 373.84 102.91 447.73 98.98 521.62 100.66 595.51 96.81 669.92 99.24 669.92 115.81"/><polygon class="cls-3" points="669.67 142.92 595.52 137.28 521.63 137.46 447.75 137.16 373.86 135.44 299.98 135.32 226.09 140.87 152.2 139.36 78.3 145.63 4.13 143.07 4.36 130.6 78.3 129.02 152.18 134.36 226.07 125.55 299.96 128.67 373.84 130.83 447.73 130.69 521.62 137.55 595.51 133.25 670.16 126.31 669.67 142.92"/><polygon class="cls-3" points="669.02 167.14 595.52 170.14 521.63 163.41 447.75 173.36 373.86 175.89 299.98 175.96 226.09 171.8 152.2 165.17 78.3 174.5 5.18 164.29 5.22 165.97 78.3 163.72 152.18 163.89 226.07 160.55 299.96 159.92 373.84 165.57 447.73 163.93 521.62 154.49 595.51 165.79 668.99 164.32 669.02 167.14"/><polygon class="cls-3" points="669.32 201.33 595.52 197.61 521.63 208.49 447.75 206.42 373.86 196.95 299.98 207.84 226.09 208.22 152.2 207.57 78.3 198.26 4.01 204.96 5.05 196.74 78.3 188.51 152.18 194.67 226.07 189.1 299.96 198.27 373.84 186.37 447.73 186 521.62 189.74 595.51 192.91 669.47 191.56 669.32 201.33"/></g><path d="M2046.08,554.25q0,7.25-6.26,11.94a29.31,29.31,0,0,1-12.87,4.87c-0.73.12-1.1,0-1.1-.29a1,1,0,0,1,.81-0.46,32,32,0,0,0,10.78-6q5.16-4.64,5.16-10.26a8.57,8.57,0,0,0-2.84-6.49,9.09,9.09,0,0,0-6.55-2.78q-7.94,0-18.49,7.88-0.12,3.25-.12,7.77,0,2.2-.06,4.52-0.06,2.61-.06,4.52,0,3-1.56,3a1.8,1.8,0,0,1-1.51-1,4,4,0,0,1-.7-2.14q0,0.23.64-3.3a62.22,62.22,0,0,0,.52-8.58q0-.93.06-2.55a76,76,0,0,0-7.07,6.26l-1.68,1.91a2.39,2.39,0,0,1-1.33.93,1.77,1.77,0,0,1-1.45-1,4.15,4.15,0,0,1-.64-2.2,4.11,4.11,0,0,1,1.27-2.32q2-2,3.59-3.94,5.51-6.78,7.71-9.91l0.17-3.42a41.53,41.53,0,0,0-5.45,2.32,18.18,18.18,0,0,1-3.25,1.51,3.11,3.11,0,0,1-2.26-1.45,4.06,4.06,0,0,1-1.22-2.55,0.69,0.69,0,0,1,.75-0.81l0.87,0.64a2.32,2.32,0,0,0,1.51.75q1.45,0,9.1-3,0.35-7.48.35-7.77a4.45,4.45,0,0,0-.75-2.67,7.89,7.89,0,0,0-.75-1,0.59,0.59,0,0,1,.7-0.64,5.65,5.65,0,0,1,3.13,1.22Q2017,529,2017,530l-0.64,2.09a16.17,16.17,0,0,0-.7,5.33,5.18,5.18,0,0,1,1.33-.29,2.8,2.8,0,0,1,1.74,1.16,3,3,0,0,1,.87,1.57,1.49,1.49,0,0,1-.58,1.1l-1.22,1.1q-0.93.93-2.67,2.84-0.06,1.62-.23,4.81,10.9-7.48,18.66-7.48a12.69,12.69,0,0,1,8.93,3.25A11.5,11.5,0,0,1,2046.08,554.25Zm-34-5.8-6.26,8.11q2.32-1.85,6.14-4.87Z" transform="translate(-1824.94 -380.69)"/><path d="M2093.37,553.27q-4.81,18.78-16,18.78a5.5,5.5,0,0,1-5.22-3.48,15.57,15.57,0,0,1-1.16-6.43q0-8.69-3.88-8.69t-7.54,5.27q-1,1.45-4.93,8.52a30.82,30.82,0,0,1-1.56,3q-1.16,2.09-2.14,2.09-1.68,0-1.68-2.43a5.75,5.75,0,0,1,1-3.07q1.45-2.14,2.84-4.17,2.09-3,9.74-15.94,8.64-14.43,8.64-15.53a3,3,0,0,0-.75-2.14,10.65,10.65,0,0,1-.93-1.1q0-.81,1.1-0.81,1.39,0,3.48,1.86,1.85,1.51,1.85,2.32a2.16,2.16,0,0,1-.81,1.56q-0.7.81-1.39,1.74-4.06,6.32-12.81,19.88a9.67,9.67,0,0,1,6.49-2.9q6.2,0,6.26,9.22,0.12,8.12,4.46,8.11,3.94,0,8.29-5.56a46.2,46.2,0,0,0,5.85-10.37,0.6,0.6,0,0,1,.58-0.46Q2093.6,552.46,2093.37,553.27Z" transform="translate(-1824.94 -380.69)"/><path d="M2142.93,554.25q0,7.25-6.26,11.94a29.31,29.31,0,0,1-12.87,4.87c-0.73.12-1.1,0-1.1-.29a1,1,0,0,1,.81-0.46,32,32,0,0,0,10.78-6q5.16-4.64,5.16-10.26a8.57,8.57,0,0,0-2.84-6.49,9.09,9.09,0,0,0-6.55-2.78q-7.94,0-18.49,7.88-0.12,3.25-.12,7.77,0,2.2-.06,4.52-0.06,2.61-.06,4.52,0,3-1.56,3a1.8,1.8,0,0,1-1.51-1,4,4,0,0,1-.7-2.14q0,0.23.64-3.3a62.22,62.22,0,0,0,.52-8.58q0-.93.06-2.55a76,76,0,0,0-7.07,6.26l-1.68,1.91a2.39,2.39,0,0,1-1.33.93,1.77,1.77,0,0,1-1.45-1,4.15,4.15,0,0,1-.64-2.2,4.11,4.11,0,0,1,1.27-2.32q2-2,3.59-3.94,5.51-6.78,7.71-9.91l0.17-3.42a41.53,41.53,0,0,0-5.45,2.32,18.18,18.18,0,0,1-3.25,1.51,3.11,3.11,0,0,1-2.26-1.45,4.06,4.06,0,0,1-1.22-2.55,0.69,0.69,0,0,1,.75-0.81l0.87,0.64a2.32,2.32,0,0,0,1.51.75q1.45,0,9.1-3,0.35-7.48.35-7.77a4.45,4.45,0,0,0-.75-2.67,7.89,7.89,0,0,0-.75-1,0.59,0.59,0,0,1,.7-0.64,5.65,5.65,0,0,1,3.13,1.22q1.74,1.28,1.74,2.26l-0.64,2.09a16.17,16.17,0,0,0-.7,5.33,5.18,5.18,0,0,1,1.33-.29,2.8,2.8,0,0,1,1.74,1.16,3,3,0,0,1,.87,1.57,1.49,1.49,0,0,1-.58,1.1l-1.22,1.1q-0.93.93-2.67,2.84-0.06,1.62-.23,4.81,10.9-7.48,18.66-7.48a12.69,12.69,0,0,1,8.93,3.25A11.5,11.5,0,0,1,2142.93,554.25Zm-34-5.8-6.26,8.11q2.32-1.85,6.14-4.87Z" transform="translate(-1824.94 -380.69)"/><path d="M2190.22,553.27q-4.81,18.78-16,18.78a5.5,5.5,0,0,1-5.22-3.48,15.57,15.57,0,0,1-1.16-6.43q0-8.69-3.88-8.69t-7.54,5.27q-1,1.45-4.93,8.52a30.82,30.82,0,0,1-1.56,3q-1.16,2.09-2.14,2.09-1.68,0-1.68-2.43a5.75,5.75,0,0,1,1-3.07q1.45-2.14,2.84-4.17,2.09-3,9.74-15.94,8.64-14.43,8.64-15.53a3,3,0,0,0-.75-2.14,10.65,10.65,0,0,1-.93-1.1q0-.81,1.1-0.81,1.39,0,3.48,1.86,1.85,1.51,1.85,2.32a2.16,2.16,0,0,1-.81,1.56q-0.7.81-1.39,1.74-4.06,6.32-12.81,19.88a9.67,9.67,0,0,1,6.49-2.9q6.2,0,6.26,9.22,0.12,8.12,4.46,8.11,3.94,0,8.29-5.56a46.2,46.2,0,0,0,5.85-10.37,0.6,0.6,0,0,1,.58-0.46Q2190.45,552.46,2190.22,553.27Z" transform="translate(-1824.94 -380.69)"/><path d="M2214,526q0.81,0,3.3,1.91,1.8,1.39,1.8,2.09a1,1,0,0,1-1,.64,11.25,11.25,0,0,0-2.43.81q-2.78,1-6.26,2a6.91,6.91,0,0,1,.81.29q2.09,0.64,2.09,1.51a9.83,9.83,0,0,1-.29,1.51q2.09-.29,4.23-0.7a11,11,0,0,0,2.9-.7,3.41,3.41,0,0,1,.81-0.12,6,6,0,0,1,1.85.64,2.29,2.29,0,0,1,1.22,1.27q0,1.1-1.39,1.1a62.65,62.65,0,0,0-9.74.93q-0.06,1-.06,2.38v0.87q2-.35,4.23-0.58a5.56,5.56,0,0,0,1.39-.29,1.77,1.77,0,0,1,.7-0.23q0.93,0,3.13,1.68,1.51,1.22,1.51,1.8a1,1,0,0,1-.35.52,8,8,0,0,0-1,3.19q-0.93,5.39-1.68,6.43a1.72,1.72,0,0,1-1.33.93,1.87,1.87,0,0,1-1.39-.7,2.55,2.55,0,0,1-.17-0.29q-2.49.23-5,.52v3.94a31.44,31.44,0,0,0,4.58-1,5.71,5.71,0,0,1,1.74-.35,2.78,2.78,0,0,1,1.45.46,1.7,1.7,0,0,1,.87,1.22q0,0.81-2,1l-6.67,1.22V566q5-1.68,10.43-3.59c0.35,0,.52.08,0.52,0.23a177.52,177.52,0,0,1-17.74,9.16,10.81,10.81,0,0,0-2,1.1,2.18,2.18,0,0,1-1.16.64q-0.93,0-3-2.2a6.23,6.23,0,0,1-1.85-2.67q0-1,.7-1a7.11,7.11,0,0,0,3.3,1.45,11.19,11.19,0,0,0,2.09-.35q2.78-.93,5.8-1.85v-4.52a7.55,7.55,0,0,0-1.8.52,5.64,5.64,0,0,1-1.68.35,7.69,7.69,0,0,1-3-1.22q-1.39-.75-1.39-1.33t0.46-.64a21.29,21.29,0,0,0,3,.17,21.77,21.77,0,0,0,3.65-.35l0.81-.12v-4.06l-4.93.81a1.18,1.18,0,0,1-1.16,1.16q-1,0-1.39-1.85a79.08,79.08,0,0,0-2.32-9.85,5,5,0,0,0-1.28-1.68,0.74,0.74,0,0,1-.58-0.46,2.18,2.18,0,0,1,1-.52,16.34,16.34,0,0,1,2.78.46,1.48,1.48,0,0,1,.75.29q3.19-.7,7.13-1.28V541q0-.75-0.06-1.39a44.23,44.23,0,0,0-6.72,1.51,2.75,2.75,0,0,1-1.1.41,3.26,3.26,0,0,1-1.85-.7,3.89,3.89,0,0,1-1.91-1.39,13.13,13.13,0,0,1-.46-1.45,13.27,13.27,0,0,0,4,.46,13.61,13.61,0,0,0,2-.17q2.78-.52,5.85-1a6.9,6.9,0,0,0-.41-1.33,5.48,5.48,0,0,0-1.57-1.68q-0.75.17-1.56,0.41a27.53,27.53,0,0,1-5.27,1,0.41,0.41,0,0,1-.46-0.46,0.78,0.78,0,0,1,.58-0.23,61.85,61.85,0,0,0,12.05-5.27q2-1.22,2-1.91a1.85,1.85,0,0,0-.93-1.33Q2213.06,526,2214,526Zm-11,23.24q3-.46,5.85-0.87v-3.19q-2.78.41-6.43,1.16Q2202.74,547.88,2203,549.21Zm0.81,5,5-.81v-2.78q-2.78.35-5.51,0.81Zm8-9.56V548l6.14-.58a15.55,15.55,0,0,0,.17-1.74q0-1.33-1.85-1.33A39.08,39.08,0,0,0,2211.84,544.69Zm0,5.62v2.78q2.72-.35,5.33-0.52l0.29-1.57a9,9,0,0,1,.17-1.22Q2214.74,550,2211.84,550.31Zm11.42-9a11,11,0,0,0,4.41.93,33.87,33.87,0,0,0,3.94-.52,81.58,81.58,0,0,0,.41-8.35,4.21,4.21,0,0,0-1.39-3.25,1.65,1.65,0,0,1-.41-0.41,0.85,0.85,0,0,1,.93-1,8.27,8.27,0,0,1,3.3,1.22q2.66,1.62,2.67,2.55a9,9,0,0,1-.41,2q-0.41,2-.64,3.13-0.29,1.74-.64,3.36l3.83-.75a5.92,5.92,0,0,0,2.49-.75,1.55,1.55,0,0,1,.75-0.29q0.87,0,3.07,2.09a2.67,2.67,0,0,1,1.1,1.56,2.78,2.78,0,0,1-.41,1.22,4.25,4.25,0,0,0-.7,2.49,115.67,115.67,0,0,1-3.25,14.61q-2,6.61-4.23,9.68-1.68,2.38-2.78,2.38a2,2,0,0,1-1.51-1.22,19.9,19.9,0,0,0-3.83-4.41,1.67,1.67,0,0,1-.52-0.58q0-.46.23-0.46a3.22,3.22,0,0,1,1,.23,20,20,0,0,0,4.58,1.1q0.81,0,1.85-2.43a56.25,56.25,0,0,0,3.3-11.07,50.22,50.22,0,0,0,1.28-9.39q0-2.38-1.33-2.38a45.08,45.08,0,0,0-5.51.93,71,71,0,0,1-3.94,13.5,38.82,38.82,0,0,1-7.65,11.82q-3.94,3.88-5.16,3.88a0.42,0.42,0,0,1-.52-0.41,38.66,38.66,0,0,0,7.36-9.33,55.22,55.22,0,0,0,5.27-14q0.58-2.26,1-4.7l-1.68.35a16.08,16.08,0,0,1-3.07.7,4.1,4.1,0,0,1-2.14-1.1q-1.57-1.27-1.57-2.09T2223.26,541.33Z" transform="translate(-1824.94 -380.69)"/><path d="M2256.35,537.15a17.62,17.62,0,0,0,3,.23,25.05,25.05,0,0,0,3.65-.29q1.16-.17,2.2-0.29v-4.29a7.28,7.28,0,0,0-2.38-5.68,1.94,1.94,0,0,1-.7-0.87,4.14,4.14,0,0,1,1.85-.87,8.33,8.33,0,0,1,2.72,1.1q2.14,0.87,2.14,2.09a6.58,6.58,0,0,1-.29,1.45q-0.12,2.38-.12,4.87v1.8q2.43-.46,3.07-0.64a8,8,0,0,1,1.8-.29,2.77,2.77,0,0,1,1.45.46,1.7,1.7,0,0,1,.87,1.22q0,0.7-2,.87-3,.41-5.16.81v2.9l1.28,0.58A12.71,12.71,0,0,1,2274,545a3.71,3.71,0,0,1,1,2.55q0,1.62-1.22,1.62-0.7,0-1.74-1.51a26,26,0,0,0-3.54-4.29v27.82q0,4.87-1.68,4.87-1,0-1.62-1.8a7.81,7.81,0,0,1-.7-3.59q0-.58.35-3.13a84.17,84.17,0,0,0,.41-9.39V547.82q-1.62,2.72-3.42,5.22a41.36,41.36,0,0,1-5.16,6.26Q2255,561,2254.5,561a0.21,0.21,0,0,1-.23-0.23,83.34,83.34,0,0,0,6.84-11.59,58.44,58.44,0,0,0,3.94-9.74,23.07,23.07,0,0,0-3,.64,6.62,6.62,0,0,1-1.68.29,7.91,7.91,0,0,1-3-1.16q-1.39-.87-1.39-1.39T2256.35,537.15Zm17.39,15.07a4.6,4.6,0,0,1,2.43.93q2,1.28,2,2a4.9,4.9,0,0,1-.12.81,19.63,19.63,0,0,0-.12,2.43v11.42c0,0.43.08,0.64,0.23,0.64q10.49-.75,17.62-1.22,3.36-.17,5.51-0.41a12.43,12.43,0,0,1,2.14-.17,4.31,4.31,0,0,1,2.49.75,1.93,1.93,0,0,1,.7,1.28q0,1.22-1.56,1.22-11.77,0-26,1.1a2.74,2.74,0,0,0-2,1.22,2.3,2.3,0,0,1-1,.93,3.35,3.35,0,0,1-1.74-.81,1.64,1.64,0,0,1-.81-1.33,2.6,2.6,0,0,1,.52-1q0.58-.7.7-3.65v-9.68a9.6,9.6,0,0,0-1.39-5.51,1,1,0,0,1-.46-0.52Q2272.87,552.22,2273.74,552.22Zm1.91-19.53a12.65,12.65,0,0,0,3.94.46q0.93,0,2.26-.12,3.19-.35,6.72-0.64a13.59,13.59,0,0,0-.64-5,4.77,4.77,0,0,0-1.91-2.09,0.65,0.65,0,0,1-.41-0.41,5.51,5.51,0,0,1,1.62-1,13.37,13.37,0,0,1,3.07.87q2.26,0.7,2.26,1.74a8.72,8.72,0,0,1-.46,1.68q-0.17,1.51-.29,3.94l5.51-.46a15.45,15.45,0,0,0,3.3-.52,8.62,8.62,0,0,1,.93-0.06,6,6,0,0,1,1.85.64,2.39,2.39,0,0,1,1.22,1.22,1.16,1.16,0,0,1-1.39,1.22q-4.64,0-11.42.58V540l1.74-.12a11.47,11.47,0,0,0,3.36-.64,5.83,5.83,0,0,1,1.45-.23,4,4,0,0,1,2,.87q1.91,1.45,1.91,1.91a1.24,1.24,0,0,1-.7.93,3.79,3.79,0,0,0-.52,2.32v15.07a16.3,16.3,0,0,1-.52,4.29q-0.41,1.22-1,1.22a1.94,1.94,0,0,1-1.74-1.33c0-.15-0.08-0.29-0.12-0.41q-6.67.23-13.5,0.75-0.06,2.67-1.33,2.67a2,2,0,0,1-1.33-1,5.38,5.38,0,0,1-.52-2.43q0-.52.06-1.62,0.12-1.51.12-3V543.36a3.88,3.88,0,0,0-1.16-2.61,1.36,1.36,0,0,1-.7-0.58,3.45,3.45,0,0,1,1.22-.7,7.79,7.79,0,0,1,2,.64,6.34,6.34,0,0,1,1.39.58l4.69-.41V535q-5.91.58-7.54,0.93a4.34,4.34,0,0,1-1.22.23,3.45,3.45,0,0,1-1.85-.64,3.91,3.91,0,0,1-1.91-1.39A14.66,14.66,0,0,1,2275.65,532.69Zm8.52,15q6.84-.58,13.5-0.87v-2.9q0-1.85-1.22-1.85-0.81,0-12.23,1a7,7,0,0,0-.06.87v3.77Zm0,7.19q6.9-.46,13.5-0.7v-5.27q-6.67.29-13.5,0.87v5.1Zm0,7.71q6.78-.52,13.27-0.75a0.94,0.94,0,0,1,.06-0.29,14.13,14.13,0,0,0,.17-2.72v-2.55q-6.67.23-13.5,0.7v5.62Z" transform="translate(-1824.94 -380.69)"/><path d="M2320.8,532.05a4.87,4.87,0,0,1,2.72,1.39q1.74,1.39,1.74,2.26a1.55,1.55,0,0,1-.29.75,3.43,3.43,0,0,0-.75,1.22q-0.7,1.39-1.39,2.61,0.7,0.06,1.51.06a20.31,20.31,0,0,0,2.84-.23l1-.23v-7a6.43,6.43,0,0,0-2.14-5,1.67,1.67,0,0,1-.64-0.7,4.22,4.22,0,0,1,1.68-1,7.73,7.73,0,0,1,2.43,1q2,0.7,2,1.8a6.41,6.41,0,0,1-.23,1.28q-0.06,2.2-.06,4.52v4.58q2-.4,2.61-0.58a4,4,0,0,1,1.39-.35,3,3,0,0,1,1.62.58,1.71,1.71,0,0,1,.93,1.28q0,0.7-1.62,1l-4.93.87v10.14q2.72-1.45,5.22-3a7.57,7.57,0,0,1,.87-0.41c0.31,0,.46.08,0.46,0.23a3,3,0,0,1-.87,1.22q-2.2,2-5.68,4.64V571q0,4.35-1.57,4.35-1,0-1.56-1.57a8.56,8.56,0,0,1-.52-3.3q0-.58.23-3.07a81.17,81.17,0,0,0,.41-9.22v-0.93l-2.61,1.85a11.35,11.35,0,0,0-2.2,1.8,2.53,2.53,0,0,1-.52.58,2.31,2.31,0,0,1-1.51-.58l-2.2-2.78a3.65,3.65,0,0,1-.7-2.26,0.85,0.85,0,0,1,.46-0.7,3.69,3.69,0,0,1,1,.58,3.09,3.09,0,0,0,1.51.87,13.48,13.48,0,0,0,2.9-1q1.91-.81,3.83-1.74v-11a9.36,9.36,0,0,0-1.33.46,5.23,5.23,0,0,1-1.45.29,8.71,8.71,0,0,1-3.25-1.33l-0.35-.17a28.9,28.9,0,0,1-2.84,3.83q-2.43,3.07-3.07,3.07a0.2,0.2,0,0,1-.23-0.23,46.45,46.45,0,0,0,4.23-9.22,18.48,18.48,0,0,0,1.1-4.29,5,5,0,0,0-.46-2,2.11,2.11,0,0,1-.41-0.93C2320.17,532.13,2320.38,532.05,2320.8,532.05Zm23.47-3.77q0.87,0,2.84,1.74t2,2.67a1.5,1.5,0,0,1-.46,1.1,12.28,12.28,0,0,0-1.33,2,42.92,42.92,0,0,1-2.84,4.29,11.18,11.18,0,0,0,2.32.23q1.45,0,10.9-1.28a6.67,6.67,0,0,0,2.32-.58,1.84,1.84,0,0,1,.64-0.23q0.93,0,3.13,1.85a2.32,2.32,0,0,1,1.1,1.45,2.58,2.58,0,0,1-.46,1.28,4.75,4.75,0,0,0-1,2.72,105.69,105.69,0,0,1-4,15.94q-2.61,7.25-5.39,10.61-2.09,2.61-3.59,2.61-0.58,0-1.22-1.39a21.31,21.31,0,0,0-3.19-4.93,1.29,1.29,0,0,1-.46-0.7c0-.12.08-0.17,0.23-0.17a2.24,2.24,0,0,1,.87.29,11.44,11.44,0,0,0,3.77,1.57q1.22,0,2.78-2.72,2.38-4,4.87-12.58a43.89,43.89,0,0,0,1.91-10.72q0-1.8-1.45-1.8-0.81,0-4.7.52a9.55,9.55,0,0,1,1.62,1.28,4.91,4.91,0,0,1,1.51,2.09,2,2,0,0,1-.58,1.45,7,7,0,0,0-1.45,2,114.9,114.9,0,0,1-6.09,9.91,55.09,55.09,0,0,1-7.25,8.35q-2.26,2-2.72,2a0.44,0.44,0,0,1-.52-0.46q6.09-6.9,12.64-19.18a11.56,11.56,0,0,0,1.8-5.39,2,2,0,0,0-.52-1.51,0.58,0.58,0,0,1-.12-0.23l-3.71.52c-0.31.08-.58,0.14-0.81,0.17l0.23,0.23a4.18,4.18,0,0,1,1.45,1.91,1.1,1.1,0,0,1-.41.87,4.63,4.63,0,0,0-1,1.28,69.3,69.3,0,0,1-4.46,6.09,31.52,31.52,0,0,1-5.16,5.22,5.59,5.59,0,0,1-2,1.22q-0.23,0-.23-0.46a64.91,64.91,0,0,0,8.4-12.17,7.5,7.5,0,0,0,1.1-3.36v-0.52a3.5,3.5,0,0,1-1.85-1,7.14,7.14,0,0,0-.58-0.52,24.2,24.2,0,0,1-4.23,4.23,5.26,5.26,0,0,1-2.09,1.1,0.44,0.44,0,0,1-.52-0.46,1.63,1.63,0,0,1,.46-0.7,17.58,17.58,0,0,0,2.78-3.54,70,70,0,0,0,4.06-7.82,7.87,7.87,0,0,0,.87-2.78A5.76,5.76,0,0,0,2344,530a3,3,0,0,1-.52-1.22Q2343.52,528.29,2344.28,528.29Z" transform="translate(-1824.94 -380.69)"/><path d="M2378.82,529.27a7.23,7.23,0,0,1,1.91.64,6.46,6.46,0,0,1,1.74.75q18.26-1.68,28.63-2.14a12.42,12.42,0,0,0,4.17-.7,7.33,7.33,0,0,1,1.33-.17q1,0,2.9,1.62a2.92,2.92,0,0,1,1.51,2,1.54,1.54,0,0,1-.7,1q-0.81,1.16-.93,8.4,0,15.42.35,20.52a43.11,43.11,0,0,1,.29,5.56,9.74,9.74,0,0,1-.75,4q-0.64,1.57-1.57,1.57a2.13,2.13,0,0,1-1.68-1,5,5,0,0,1-.41-0.58q-16.34.52-33.39,1.45a1.6,1.6,0,0,1-1.62,1.28,1.74,1.74,0,0,1-1.22-1.1,4.41,4.41,0,0,1-.58-2.38,6.47,6.47,0,0,1,.29-1.57,12,12,0,0,0,.41-3.13V533.16a3.73,3.73,0,0,0-1.28-2.61,1,1,0,0,1-.64-0.58A4.06,4.06,0,0,1,2378.82,529.27Zm3.65,40.86q16.75-.93,32.8-1.33a1.73,1.73,0,0,1,.46-0.87,5.83,5.83,0,0,0,.41-2.78v-31a4.28,4.28,0,0,0-.46-2.43,4.94,4.94,0,0,0-2.55-.41q-9.39,0-30.6,1.91a1.67,1.67,0,0,0-.06.41v36.51Zm7.88-24a10.41,10.41,0,0,1,1.85.29,0.68,0.68,0,0,1,.64.29l8.69-1.27a15.34,15.34,0,0,0,3.07-.75,1.64,1.64,0,0,1,1.1-.35,7.47,7.47,0,0,1,3.07,1.16,1.55,1.55,0,0,1,.87,1.16,0.51,0.51,0,0,1-.52.41,2.25,2.25,0,0,0-.81,1.16l-1,2.49a2.21,2.21,0,0,1,1,1.27q0,0.87-1.62.87l-6.61.46h0.06a2,2,0,0,1,1.22,1.45,1.62,1.62,0,0,1-.81.75l-0.17.17a2.12,2.12,0,0,1,.52,1.16q0.75,0.29,1.8.75t1.74,0.75c0.27-.23.54-0.48,0.81-0.75a11.64,11.64,0,0,0,1.68-1.85,2,2,0,0,0,.41-0.75,4.39,4.39,0,0,0-.41-1.45c0-.31.21-0.46,0.64-0.46a4.39,4.39,0,0,1,2.14,1.45,3.12,3.12,0,0,1,1.39,1.85,0.16,0.16,0,0,1-.12.12,2,2,0,0,0-.52.23,32,32,0,0,1-3,1.62,14.56,14.56,0,0,1-1.62.7,20.79,20.79,0,0,1,3.36,2q1.68,1.22,1.68,2.2,0,2.32-1.39,2.32a2.08,2.08,0,0,1-1.56-.93,31.48,31.48,0,0,0-4.17-4.52q-1.39-1.22-2.9-2.38a1.74,1.74,0,0,1-.06.41,15.82,15.82,0,0,0-.17,2.78v5.39q0,1.8-.87,1.8a2.22,2.22,0,0,1-1.16-1.22,5.45,5.45,0,0,1-1-3.13,1.08,1.08,0,0,1,.29-0.7,2.24,2.24,0,0,0,.46-1.33v-1.68a6.82,6.82,0,0,0-.46-2.55,47.1,47.1,0,0,1-5,3.3,44.45,44.45,0,0,1-5.1,2.49,11.06,11.06,0,0,1-2.72.93,0.2,0.2,0,0,1-.23-0.23,0.5,0.5,0,0,1,.46-0.29,36.69,36.69,0,0,0,5.33-3.3,42.84,42.84,0,0,0,5.74-5,2.45,2.45,0,0,0,.81-1.33,2.48,2.48,0,0,0-.12-0.58l-3.13.29a1.46,1.46,0,0,1-1.45,1q-0.58,0-.81-1.1a54,54,0,0,0-1.33-5.74,2.68,2.68,0,0,0-.75-1,0.49,0.49,0,0,1-.29-0.29A5.79,5.79,0,0,1,2390.36,546.14Zm-0.23-10.2a9.63,9.63,0,0,0,4.23.75q0.64,0,3.42-.35v-0.41a2,2,0,0,0-1.27-2,1.62,1.62,0,0,1-.52-0.35,5.08,5.08,0,0,1,1.33-.93,9.3,9.3,0,0,1,2.2.64q1.56,0.58,1.56,1a2.6,2.6,0,0,1-.12.7,4.75,4.75,0,0,0-.06.87l2.84-.41a3,3,0,0,0,1-.29,0.76,0.76,0,0,1,.46-0.17,3.07,3.07,0,0,1,1.68.52,1.55,1.55,0,0,1,.87,1.1q0,0.93-2,.93-2.67.17-4.87,0.46V541l4.69-.52a17.51,17.51,0,0,0,3-.46,7.14,7.14,0,0,1,.87-0.06,8.78,8.78,0,0,1,1.68.46,1.93,1.93,0,0,1,1.1,1.16q0,0.93-1.39.93a111.52,111.52,0,0,0-12,.81q-6.2.81-7.77,1.22a3.55,3.55,0,0,1-1.16.29,3.18,3.18,0,0,1-1.62-.58,3.24,3.24,0,0,1-1.62-1.22q-0.41-1.16-.41-1.22a9.87,9.87,0,0,0,3.48.46,14.78,14.78,0,0,0,2-.17q2.84-.35,6-0.7v-2.9q-1.51.17-3,.46a7.85,7.85,0,0,1-1.68.29,4.71,4.71,0,0,1-2.14-1.1,3.21,3.21,0,0,1-1.27-1.22Q2389.72,535.94,2390.12,535.94Zm3.88,15.71,8.4-.87q1.22-.23,2.26-0.46a0.24,0.24,0,0,1,.17-0.06,22,22,0,0,0,.35-2.67q0-.46-1.1-0.46t-10.67,1.51Q2393.89,550.72,2394,551.64Z" transform="translate(-1824.94 -380.69)"/><path d="M1928.77,488.51a3,3,0,0,1,1.84,1,2.09,2.09,0,0,1,1.28,1.63q0,0.87-1.63.87l-2.49-.2q-3.87-.19-6.72-0.18t-6.26.27q0.61,0.41,1.48.91,7.14,4.77,10.25,6.54a50.68,50.68,0,0,0,7,2.93,2.05,2.05,0,0,1,.61.3,1.14,1.14,0,0,1-.86,1,14.26,14.26,0,0,1-5.24,1,1.76,1.76,0,0,1-1.12-.4q-4.18-3.09-11-9.28-1.07-1-2-1.83l0,11.1q0,2.7-1.62,2.7a1.76,1.76,0,0,1-1.17-1,4.22,4.22,0,0,1-.46-2.08,7,7,0,0,1,.2-1.37,10.57,10.57,0,0,0,.35-2.75l0-6.36a37.9,37.9,0,0,1-5.28,5.21,40.5,40.5,0,0,1-7.21,5q-3.66,2-5.75,2-0.61,0-.61-0.41a35.65,35.65,0,0,0,15-12.41q-3.16.42-6.72,0.94a23.09,23.09,0,0,1-3.26.87,4.45,4.45,0,0,1-2.45-1.42,2.2,2.2,0,0,1-1.28-1.42v-0.87a12.39,12.39,0,0,0,3.31.4q1.73,0,14.2-1V487.8a3.16,3.16,0,0,0-1-2.29,1,1,0,0,1-.56-0.61,3.71,3.71,0,0,1,1-.61,6.44,6.44,0,0,1,1.73.61q1.73,0.6,1.73,1.06A4.53,4.53,0,0,1,1914,487q0,0.76,0,1.17V490l3-.21a86.87,86.87,0,0,0,10.18-.9A7.42,7.42,0,0,1,1928.77,488.51ZM1903.54,477c0.27,0,.41.07,0.41,0.2a2.61,2.61,0,0,1-.46.92,69,69,0,0,1-5.89,6.63,7.67,7.67,0,0,0-1.12,1.43,3.31,3.31,0,0,1-.3.36,1.9,1.9,0,0,1-1.22-.4l-1.89-2.44a3.83,3.83,0,0,1-.51-2,0.58,0.58,0,0,1,.41-0.41,5.92,5.92,0,0,1,.76.46,2.56,2.56,0,0,0,1.27.71,5.61,5.61,0,0,0,1.53-.67,48.07,48.07,0,0,0,6.55-4.55A2.32,2.32,0,0,1,1903.54,477Zm-8.38-10.77a7.4,7.4,0,0,1,2.65,1,11.83,11.83,0,0,1,3.52,2.28,3.52,3.52,0,0,1,.72,2.14q0,1.63-1,1.63a2.17,2.17,0,0,1-1.48-1.22,26.47,26.47,0,0,0-4.85-5.43A0.36,0.36,0,0,1,1895.16,466.27Zm14-5.18a4.83,4.83,0,0,1,2.35,1.16q1.73,1.22,1.74,1.73a0.54,0.54,0,0,1-.25.36,2.7,2.7,0,0,0-.51.71,14.68,14.68,0,0,1-1.72,2.65l4.48-.62a2.24,2.24,0,0,0,.91-0.41,1,1,0,0,1,.61-0.26,5,5,0,0,1,2.24,1.42,2.11,2.11,0,0,1,1,1.17,1.56,1.56,0,0,1-.4,1.07,3.1,3.1,0,0,0-.35,1.78l-0.38,8.15a8.71,8.71,0,0,1-.55,2.55,1.42,1.42,0,0,1-1.07,1,1.15,1.15,0,0,1-1-.71,1.63,1.63,0,0,1-.46-0.81q-3.41.16-7,.53-0.2,1.63-1.37,1.63a1.37,1.37,0,0,1-.92-0.81,2.76,2.76,0,0,1-.31-1.27l-0.64-10.18a5.44,5.44,0,0,0-.72-2.44,3.77,3.77,0,0,0-1.28-1.27,0.57,0.57,0,0,1-.46-0.3,3.52,3.52,0,0,1,1.17-.67,10.14,10.14,0,0,1,2.34.71,2,2,0,0,1,.46.25l1.68-.21q0.2-1,.45-2.39a11.52,11.52,0,0,0,.15-1.78,2.68,2.68,0,0,0-.51-1.68,1.23,1.23,0,0,1-.46-0.56Q1908.38,461.09,1909.14,461.08Zm-0.88,13.29q4.12-.52,8.14-0.79l0.14-3.31a1,1,0,0,0-1.07-1.27q-1.07,0-7.48.89c0,0.07,0,.14,0,0.2Zm0.48,6.36q3.71-.42,7.33-0.63a1.15,1.15,0,0,0,0-.36l0.19-4.33q-3.92.27-7.89,0.74Zm18.18-16.6a4.71,4.71,0,0,1,2.09,1.32,2.92,2.92,0,0,1,1.38,1.68,0.29,0.29,0,0,1-.2.2l-0.51.51a29.68,29.68,0,0,1-3.4,3.11,18.59,18.59,0,0,1-2.79,1.79,6.53,6.53,0,0,1-1.47.51c-0.14,0-.2-0.12-0.2-0.36a21.3,21.3,0,0,0,2.33-2.55,28.15,28.15,0,0,0,2-3.06,4.65,4.65,0,0,0,.56-1.33,3.5,3.5,0,0,0-.62-1.47C1926.05,464.26,1926.34,464.14,1926.92,464.14Zm-4,12.23a10.53,10.53,0,0,1,3.46,1.11,15.32,15.32,0,0,1,4.49,2.53,3.51,3.51,0,0,1,1,2.39q0,1.48-1.06,1.48a3.14,3.14,0,0,1-1.89-1.42,30.88,30.88,0,0,0-6.23-5.89A0.18,0.18,0,0,1,1922.88,476.37Z" transform="translate(-1824.94 -380.69)"/><path d="M1967.28,496.9a28.26,28.26,0,0,1-7.27,4.4,20,20,0,0,1-7.58,1.75q-6.87,0-9.28-4.86-1.74-3.41-1.76-10.94a97.59,97.59,0,0,1,.93-12.47q0.75-5.45.75-6.42a4.26,4.26,0,0,0-.77-2.54,11.93,11.93,0,0,0-.72-1.12,0.78,0.78,0,0,1,1-.77,5.42,5.42,0,0,1,2.75,1.47q1.89,1.32,1.89,2.44a3.48,3.48,0,0,1-.4,1.32q-0.51,1-.71,1.38a99.79,99.79,0,0,0-1.63,17.92q0,11.81,7.36,11.79a28.3,28.3,0,0,0,14.85-4.12,2,2,0,0,1,.86-0.31,0.25,0.25,0,0,1,.31.25A1.22,1.22,0,0,1,1967.28,496.9Z" transform="translate(-1824.94 -380.69)"/><path d="M1983.64,488.86a30.4,30.4,0,0,0-1,6.72q0,0.56.05,1.22t0.05,0.81a1.33,1.33,0,0,1-1.47,1.53q-1.07,0-2.86-1.77-5.67-5.68-5.69-15.15,0-1.07.14-3.16t0.19-3.87a6.06,6.06,0,0,0-.57-2.65q-0.56-1.22-.56-1.17a0.81,0.81,0,0,1,.86-1,3.73,3.73,0,0,1,2.24,1.42,3.39,3.39,0,0,1,1.53,2.34q0,0.25-.75,3.11a26.16,26.16,0,0,0-.69,6.52,15.29,15.29,0,0,0,1.8,6.56q1.84,3.61,3.22,3.6a0.8,0.8,0,0,0,.61-0.66q3-7.29,3-5.51A6.63,6.63,0,0,1,1983.64,488.86ZM2009,490q0,2.39-1.77,2.4-1.53,0-1.89-2.34a42.55,42.55,0,0,0-1.08-4.93,27.09,27.09,0,0,0-5.68-8.84q-2.55-2.84-2.55-2.94,0-.56.66-0.36a5.49,5.49,0,0,1,1.43.71,22,22,0,0,1,7.55,7.21Q2009,486,2009,490Z" transform="translate(-1824.94 -380.69)"/><path d="M2021.55,499.14a3.66,3.66,0,0,1-1.16,2.75,3.77,3.77,0,0,1-2.75,1.18,3.82,3.82,0,0,1-2.8-1.16,3.81,3.81,0,0,1,0-5.5,3.82,3.82,0,0,1,2.8-1.18,3.77,3.77,0,0,1,2.75,1.16A3.66,3.66,0,0,1,2021.55,499.14Zm-1.27-32.52q0-.25-0.29,3.56l-1.77,22.5H2017l-2.06-24.17q-0.11-1.37-.11-1.88a2.36,2.36,0,0,1,2.69-2.66Q2020.27,464,2020.28,466.61Z" transform="translate(-1824.94 -380.69)"/></svg>